<?xml version="1.0" encoding="utf-8"?>
<!-- Generator: Adobe Illustrator 28.1.0, SVG Export Plug-In . SVG Version: 6.00 Build 0)  -->
<svg xmlns:xlink="http://www.w3.org/1999/xlink" version="1.1" id="Layer_1" xmlns="http://www.w3.org/2000/svg" x="0px" y="0px"
     viewBox="0 0 700 700" style="enable-background:new 0 0 700 700;" xml:space="preserve">
<style type="text/css">
	.st0{fill:#09090F;}
	.st1{fill:#AFB1E0;}
	.st2{fill:#1B1B1F;}
	.st3{fill:#A3A5D9;}
	.st4{fill:#B7B9E5;}
	.st5{fill:#BEC0E9;}
	.st6{fill:#FDFDFE;}
	.st7{fill:#FDFEFE;}
	.st8{fill:#C7CAF0;}
	.st9{fill:#3EBEE5;}
	.st10{fill:#FCFDFE;}
	.st11{fill:#ABAEE4;}
	.st12{fill:#F8FBFC;}
	.st13{fill:#F7FAFC;}
	.st14{fill:#A9ACE1;}
	.st15{fill:#FEFEFE;}
	.st16{fill:#A0A0D8;}
	.st17{fill:#AAADE3;}
	.st18{fill:#B3B5E4;}
	.st19{fill:#E4EFF7;}
	.st20{fill:#F4F8FA;}
	.st21{fill:#F6FAFC;}
	.st22{fill:#E6F3F8;}
	.st23{fill:#B3B6E5;}
	.st24{fill:#AFB1E2;}
	.st25{fill:#2F2E53;}
	.st26{fill:#E0ECF4;}
	.st27{fill:#262547;}
	.st28{fill:#C5C9EE;}
	.st29{fill:#C2C8EB;}
	.st30{fill:#CDD2F1;}
	.st31{fill:#C3C6ED;}
	.st32{fill:#7678A8;}
	.st33{fill:#6E6D9A;}
	.st34{fill:#7F7FAD;}
	.st35{fill:#DBE6EE;}
	.st36{fill:#515184;}
	.st37{fill:#242343;}
	.st38{fill:#7C7AA6;}
	.st39{fill:#FFFFFF;}
	.st40{fill:#05050A;}
	.st41{fill:#A9ACE3;}
	.st42{fill:#8A89B7;}
	.st43{fill:#AFB0D7;}
	.st44{fill:#272648;}
	.st45{fill:#1A192E;}
	.st46{fill:#F9FBFD;}
	.st47{fill:#4E69AE;}
	.st48{fill:#242344;}
	.st49{fill:#4E62A2;}
	.st50{fill:#F5F6FA;}
	.st51{fill:#4F4D7D;}
	.st52{fill:#4A4A77;}
	.st53{fill:#4D4B7A;}
	.st54{fill:#C8CCED;}
	.st55{fill:#5465A3;}
	.st56{fill:#646BA0;}
	.st57{fill:#7B78A4;}
	.st58{fill:#020203;}
	.st59{fill:#4E62A4;}
	.st60{fill:#3EBFE6;}
	.st61{fill:#0101FE;}
	.st62{fill:#0E0D19;}
	.st63{fill:#3DC1E7;}
	.st64{fill:#514F81;}
</style>
    <path class="st0" d="M567.4,547.7c-0.4,0-0.6,0.1-1.3,0.6c-2.3,1.4-4.1,2.6-6,3.8c-0.4,0-0.6,0.1-1.3,0.7c-0.6,0.7-0.9,1-1.1,1.5
	c-0.4-0.1-0.9-0.1-2-0.2c-0.9,0.3-1.1,0.8-1.4,1.2c0,0,0,0.1-0.4,0c-2.6,0.8-4.6,1.6-6.9,2.3c-0.3-0.1-0.6,0.1-1.1,0.1
	c-13.7,6.4-28.3,4.9-42.4,6.5c-6.9,0.8-13.9-0.1-20.9,0.1c-1.7,0.1-4.6,1.5-4.7,2.7c-0.8,4.1-1,8.4-0.9,12.5
	c0.6,16.5,1.1,33.1,2.2,49.6c0.6,9.3,2.3,18.6,3.6,28.6c5.2-3.4,9.6-6.2,14.4-9.1c14.9-6.2,29.7-6.5,45.1-1.9
	c3.4,1.4,6.6,2.4,10.3,3.6c3.6,0.8,6.8,1.7,9.8,2.7c0.5,1.3,1.1,2.8,1.8,4.3c0,0,0.1-0.1,0,0.2c0.3,0.6,0.6,0.8,1,0.9
	c0,0,0.3-0.2,0.1,0.2c0.3,0.6,0.6,0.8,1,0.9c0,0,0.3-0.2,0.1,0.1c0,0.8,0.3,1,0.8,1c0,0,0.1,0.1,0.3,0.5c1.4,1.5,2.7,2.7,3.8,3.7
	c0,0,0.1-0.1,0,0.3c1,1.4,2.2,2.4,3.3,3.5c0,0,0,0.3,0.1,0.7c0.4,0.8,0.8,1,1.1,1.4c2.3,5,5.1,10,6.6,15.1
	c2.7,9.1-1.8,14.1-12.1,14.1c-32.2,0-64.5-0.2-96.6-0.1c-5.5,0-8.2-2.8-8.3-6.7c-0.1-5.2,0.3-10.8,2.3-15.6
	c2.6-5.9,4.3-11.5,2.9-17.9c-0.5-2.3-0.4-4.8-0.6-8c-3.8-2.4-4.7-5.1-4.5-8.6c0.4-6.4,0-12.8,0-19.3c0-0.1,0-0.3,0.4-0.5
	c0.5-0.9,0.8-1.6,0.8-2.3c-0.1,0,0.1-0.1,0.5-0.3c0.1-3.9-0.1-7.5-0.5-11.3c-0.1,0,0.1,0,0.3-0.3c-0.4-1.3-0.8-2.1-1.5-2.8
	c-0.3,0.1,0.3-0.1,0.3-0.7c0-12.4,0.1-24.5-0.1-36.5c0-1.6-1.5-3.4-2.4-4.9c0,0.1,0-0.1-0.4-0.5c-4.3-0.1-8.3,0.1-12.4,0.5
	c0,0.1-0.1-0.1-0.5-0.1c-1.4,1-2.3,2.2-3.2,3.5c0.1,0-0.1,0-0.5,0.3c-0.5,7.8-0.8,15.3-0.6,22.9c0.3,0.1-0.3-0.1-0.6,0
	c-0.5,1.2-0.6,2.2-0.8,3.1c0,0,0,0-0.4,0.3c-0.5,2.6-0.8,4.8-0.8,6.9c-0.1,16.3-0.1,32.6-0.3,48.9c0,0-0.3,0-0.8,0
	c-0.6,0.5-0.8,0.9-1,1.4c-1.5,7.9-4.7,15.6,0.3,23.7c2.4,3.9,3.7,8.9,4.2,13.5c0.8,7.8-3.1,11.1-11.6,11.1c-11.9,0.1-23.9,0-35.7,0
	c-20.2,0-40.3,0-60.5,0c-8.6,0-11.2-2.6-10.7-10.3c0.8-11.1,7.5-19.9,15.1-28.1c1.5-1.7,3.6-3.1,4.7-5c0.9-1.4,1.7-4.3,0.9-4.9
	c-4.1-3.1-2.9-7.2-3.1-11.1c-0.3-5.2,1-10.7-3.2-15.2c-0.5-0.6-0.3-2-0.1-2.9c1-6.7,2.9-13.6,3.2-20.3c0.5-11.4,0.1-22.8,0.1-34.1
	c0-1.5-0.4-3.1,0.3-4.4c4.3-8.1,1.3-13.5-5.9-19.4c-25.2-20.6-30.3-47-26-76.2c1.3-9.1,2-18.1,3.1-27.2c0.5-4.5-1.8-6-6.5-4.6
	c-19.9,5.5-40.5,4.6-60.5,3c-15.1-1.3-29.6-7.5-41.9-16.5c-11.1-8.1-22.5-16.1-31.8-25.8c-15.4-16.3-32.7-31.5-44.6-50.4
	c-3.6-5.7-4.3-12.9-6.8-19.3c-0.5-1.5-1.9-3.6-3.3-3.9c-12.5-2.3-22.6-8.6-32.2-15.8c-13-9.9-21.7-22.9-30.3-35.8
	c-6.1-9.3-8.6-20-6.8-31.1c1.3-7.5,12.6-16,21.7-16.4c2.3-0.1,4.6,0,7,0c0.3-0.6,0.6-1,0.9-1.6C55.4,200.7,30,178.5,4.6,156.2
	c-1-4.8-2-10.3-3.4-15.9c-3.6-12.8,1.4-23.2,11-31.9c24.3-22.2,48.8-44.1,73.2-66.3C96,32.3,108.7,30.8,123,34
	c8.9,2,15.4,6.5,21.6,12.1c13.7,12.4,27.6,24.7,41,37.4c10.9,10.2,21.1,21,31.3,31.7c9.1,9.5,8.2,30.1-1.8,39.9
	c-0.9,0.8-1,2.3-1.1,3.7c0.4,0.2,0.5,0.2,0.1,0c-1.1,0.2-1.9,0.8-2.9,1.4c-0.1,0.1-0.4,0.3-0.8,0.5c-2,1.9-3.6,3.8-5.4,5.5
	c-16,14.6-32,29.1-48,43.9c-2.3,2.1-6.1,4.5-0.9,7.4c0-0.1,0,0.1,0,0.5c3.4,2.4,7.1,4.3,10.2,6.6c3.3,2.6,6,5.6,9.1,8.4
	c0.1-0.1-0.1,0.1-0.1,0.3c0.4,0.5,0.9,0.7,1.3,0.7c0-0.1-0.1,0.1-0.3,0.5c2,2.7,4.1,5,6.3,7.2c0-0.1-0.1,0.1-0.3,0.5
	c0.8,1.6,1.7,2.8,2.7,3.9c0-0.1-0.1,0.1-0.3,0.6c3.1,11.1,8,21.5,6.4,33.1c-0.1,0.9,0.6,1.9,1.1,2.8c0.1,0,0,0.1,0.3,0.5
	c5.4,1.6,10.3,2.8,15.6,3.9c0.1-0.1-0.1,0.1-0.1,0.5c5.2,4.9,10.5,9.4,15.8,13.8c0.1-0.1-0.1,0.1-0.1,0.3c0.4,0.5,0.9,0.7,1.3,0.7
	c0-0.1-0.1,0.1-0.3,0.5c3.6,4.2,7.3,7.9,11.2,11.6c0.1-0.1-0.1,0.1-0.1,0.3c0.4,0.5,0.9,0.7,1.3,0.7c0-0.1-0.1,0.1-0.3,0.5
	c3.6,4.2,7.3,7.9,11.2,11.6c0.1-0.1-0.1,0.1-0.1,0.5c0.4,0.5,0.9,0.7,1.3,0.7c0-0.1-0.1,0.1-0.3,0.5c2.8,2.7,5.7,5,8.8,7.2
	c0.1-0.1-0.1,0-0.1,0.3c0.4,0.5,0.9,0.7,1.3,0.7c0.1-0.1-0.1,0.1,0,0.5c2,1.3,4.1,2.1,6.1,2.9c0-0.1,0,0,0,0.5
	c2.8,1.3,5.6,2.1,8.4,2.8c0.1-0.1,0,0.1,0,0.6c4.1,1.6,8,2.8,12.1,3.8c0.1-0.1,0,0.1,0,0.5c1.7,0.8,3.2,1.3,4.9,1.6
	c0.1-0.1,0,0.1,0,0.5c1.7,0.8,3.2,1.4,4.9,1.7c0-0.1,0,0.1,0,0.6c4.1,1.6,8,2.8,12.1,3.8c0.1-0.1,0,0.1,0,0.6
	c7.3,2,14.4,3.8,21.7,4.8c1.9,0.2,5-2.1,6.1-3.9c1-1.6,3.6-4.8-0.8-6.6c-0.3-0.3-0.6-0.5-1.1-0.9c-0.5-0.5-0.9-0.7-1.4-0.7
	c0,0.1,0.1-0.1,0-0.5c-1.7-0.8-3.2-1.3-4.9-1.6c-0.1,0.1,0-0.1,0-0.5c-1.7-0.8-3.2-1.4-4.9-1.7c-0.1,0.1,0-0.1,0-0.5
	c-1.7-0.8-3.2-1.4-4.9-1.7c-0.1,0.1,0-0.1,0-0.5c-1.7-0.8-3.2-1.4-4.9-1.7c-0.1,0.1,0-0.1,0-0.5c-1.7-0.8-3.2-1.3-4.9-1.7
	c-0.1,0.1,0-0.1,0-0.5c-2-1.3-4.1-2.1-6.1-2.9c-0.1,0.1,0.1,0,0.1-0.3c-0.4-0.5-0.9-0.7-1.3-0.7c0,0.1,0.1-0.1,0-0.5
	c-3.7-3.4-7.5-6.3-11-9.4c-4.9-4.3-9.6-8.8-14.6-13.2c-0.1,0.1,0.1,0,0.1-0.3c-0.4-0.5-0.9-0.7-1.3-0.7c0,0.1,0.1-0.1,0.3-0.5
	c-1.1-2-2.4-3.6-4-5.1c-0.1,0.1,0.1,0,0.1-0.3c-0.4-0.5-0.9-0.7-1.3-0.7c0,0.1,0.1-0.1,0.3-0.5c-1.1-2-2.4-3.6-4-5.1
	c-0.1,0.1,0.1-0.1,0.1-0.5c-0.8-1.6-1.7-2.8-2.6-3.9c-0.1,0,0.1-0.1,0.1-0.5c-0.8-1.6-1.7-2.8-2.6-3.9c-0.1,0,0.1-0.1,0.1-0.5
	c-0.8-1.6-1.7-2.8-2.6-3.9c-0.1,0,0.1-0.1,0.1-0.5c-0.8-1.6-1.7-2.8-2.6-3.9c-0.1,0,0.1-0.1,0.1-0.5c-1.7-3.8-3.2-7.2-5-10.6
	c-0.1,0.1,0.1-0.1,0.1-0.5c-1.3-3.5-2.4-6.6-3.7-10c-0.3-0.3-0.6-0.5-1.1-1c-2.9-1.3-5.7-2.1-8.6-2.9c-0.1,0.1,0.1-0.1,0-0.5
	c-4.5-4.2-8.8-7.9-13.4-11.6c-0.1,0.1,0.1-0.1,0.1-0.5c-3.3-7.7-4-15.2-3.8-23c0.3-16.3,0.1-32.6,0-48.9c0-2-1.4-3.9-2.3-5.8
	c0,0.1,0.1-0.1,0.3-0.5c-0.5-1.5-1.1-2.7-1.8-3.7l-0.1,0.1c4.2,1.2,7.4,0.2,9.3-3.7c3.4-7.1,10-11.3,17.7-14.1c3.2-1.2,5.2-2.6,6-6
	c8.9-37.4,29.9-68.2,61.8-93.1c16.3-12,34.3-21,53.7-27.6c16.2-5.6,32.8-11,49.8-14.1c14.7-2.7,30.1-2.7,45.3-2.3
	c14.2,0.3,28.5,2,42.4,4.3c9.6,1.5,18.8,4.9,28,7.9c11.1,3.7,22.2,7.5,32.9,12c17.5,7.3,32.2,18.2,46,30.3
	c6.5,5.7,13.9,10.8,19.5,17.1c5.5,6.2,9.3,13.5,13.5,20.6c9.1,15.1,15.8,30.9,19.3,48c0.4,1.6,2.7,3.5,4.6,4.2
	c15.4,5.8,23.5,16.5,23.5,31.8c0,16.7,0.4,33.3-0.1,50c-0.5,15.7-9.3,25.7-25.7,30.9c-1.7,0.6-3.3,2.9-3.8,4.6
	c-5.1,15.4-10.9,30.4-21.1,43.8c-3.6,4.8-5.9,10.3-7.7,15.7c-1.8,1.2-3.6,2.2-5.2,3.5c-6.5,4.8-12.5,10.5-19.7,14.3
	c-7.3,3.9-15.8,5.7-23.5,9.3c-3.3,1.5-6,4.6-7.9,7.5c-0.6,1.2,1.7,4.3,3.3,5.8c1.1,1,3.7,1.5,5.5,1.4c14.7-0.7,28.1,2.3,41.7,8
	c21.3,8.9,39.1,21.5,54.9,36.9c7.8,7.5,15.8,14.5,18.3,25.2c2.2,9.3,2,18.3-2,27.3c-6,13.5-14.9,25.3-26.3,35.6
	c-10.5,9.6-20.7,19.4-35.7,23.2c-1.1,0.3-1.8,2.1-3.3,3.6c-4,3.4-7.3,6.3-10.6,9.3c0,0,0.1,0.2-0.4,0c-0.9,0-1.3,0.2-2,0.3
	c-0.6,0.2-0.9,0.5-1.1,0.7c0,0,0,0.1-0.5,0.1c-0.6,0.3-0.9,0.7-1,1.2c-0.5,0.2-1,0.5-2,0.8c-0.9,0.5-1,0.9-1.3,1.3c0,0,0,0.1-0.4,0
	c-2.2,1.4-3.8,2.9-5.6,4.3c0,0,0.1,0.2-0.4,0.1c-2.3,0.2-4,0.7-5.6,1c0,0,0,0.1-0.5,0c-1.5,0.3-2.6,0.8-3.4,1.3
	c-0.4,0-0.6,0.1-1.3,0.6c-1.1,0.7-1.8,1-2.3,1.5c0,0-0.4-0.1-1-0.2c-5.1,0-9.6,0.1-14,0.2c0,0-0.4-0.1-0.6-0.5
	C572.7,543.5,569.5,544.3,567.4,547.7 M199.9,118.3c0,0,0.1,0,0-0.7c-0.4-0.2-0.8-0.3-1.1-0.5c0,0,0.1-0.1,0.1-0.8
	c-2-1.6-4-3.3-6.3-4.9c0,0,0.3-0.1,0.1-0.8c-1.5-1.2-3.2-2.4-5.1-3.3c0,0,0.4-0.3,0.3-1c-2-1.6-4-3.1-6.3-4.5c0,0,0.3-0.2,0.1-0.8
	c-0.4-0.1-0.8-0.3-1.1-0.5c0,0,0-0.1-0.1-0.7c-0.4-0.1-0.8-0.2-1.3-0.1c0,0,0.1-0.2,0-0.8c-0.4-0.1-0.8-0.2-1.3-0.2
	c0,0,0.1-0.1,0.1-0.7c-0.4-0.1-0.8-0.3-1.3-0.3c0,0,0.1-0.1,0.1-0.8c-0.4-0.1-0.8-0.3-1.3-0.3c0,0,0.1-0.1,0.1-0.8
	c-0.4-0.1-0.8-0.3-1.3-0.3c0,0,0.1-0.1,0.1-0.8c-0.4-0.1-0.8-0.3-1.3-0.3c0,0,0.1-0.1,0.1-0.8c-0.4-0.1-0.8-0.3-1.3-0.3
	c0,0,0.1-0.1,0.1-0.8c-0.4-0.1-0.8-0.3-1.4-0.3c0,0,0.1,0,0-0.7c-0.5-0.2-0.9-0.5-1.8-1.2c-3.7-3.3-7.7-6.4-11.2-9.8
	c-9.8-8.9-19.2-18.3-29.4-26.8c-3.8-3.1-9.7-4.4-15.6-6.6c-7.8,0.5-14.8,2.4-20.6,7.7c-18.8,17-37.7,33.8-56.3,50.9
	c-6.5,6-12.3,12.9-18.9,20.2c0.3,5.3-0.1,10.8,1.1,15.9c1.9,8.2,9.6,13.1,15.8,18.7c20.2,18.1,40.1,36.7,60.5,54.6
	c9.2,8,18.9,9.8,29,2.6c16-11.5,30.5-24.6,45.7-37.2c2.9-2.4,5.6-5.2,8.4-7.7c11.2-9.6,23.2-18.8,28.9-32.4c1.4-3.4,0.5-7.5,1.4-12
	c-0.6-1-1.3-2-2-2.9c0,0,0.1,0,0.3-0.8c-1.1-1.3-2.3-2.7-3.4-3.9c0,0,0-0.1-0.1-0.7c-0.4-0.1-0.8-0.2-1.3-0.2c0,0,0.1-0.2,0-0.8
	C200.8,118.5,200.4,118.3,199.9,118.3 M345.5,533.3c0,0,0.6,0.1,0.6,0.8c7.7,6.4,16.2,11.4,26.3,13.8c21.7,5.3,44.2,4.4,66.3,4.6
	c24.5,0.3,49-1,73.5-1.4c13.1-0.2,25.9-1.7,37.5-7.5c9.3-4.6,18.9-9.8,24-19.9c8.4-10.3,11.5-22.1,10.5-34.8
	c-1-13.2-1.4-26.5-2.8-39.7c-1.4-12.9-4-25.8-5-39c4.1,0.1,8,0.2,12.3,1.3c0.5,2.9,1,5.9,1.5,9.4c0,0,0.3,0.5,0,1.3
	c0.1,0.6,0.3,1,0.3,2c0,0.3,0.3,0.6,0.4,1.5c1.5,2,2.9,3.9,4.9,6.4c0.9,0.2,1.7,0.3,3.3,0.9c4.6,2.1,9.2,4.2,13.4,7
	c-5.2,6.3-10.5,12.4-16.6,19.3c0.3,6,0.4,12,0.4,18.6c0.1,0.8,0.1,1.7-0.3,3.3c0.1,1.3,0.4,2.6,0.4,4.2c0,0,0.1,0.3,0,1.2
	c0.5,0.2,0.9,0.6,1.1,1.2c0,0,0.1,0.2-0.1,0.9c0.5,0.6,1,1.2,1.5,1.9c0,0,0,0.1-0.1,0.9c3.8,4.6,7.3,9.6,11.6,13.8
	c2.3,2.2,6.1,3.6,9.4,4.1c9.2,1.2,17.2-1.9,24.1-7.2c7.8-6.3,15.3-12.8,22.7-19.5c3.2-2.9,5.9-6.4,8.8-9.8
	c-6.9-1.4-12.5-2.4-18.5-4.2c-11.6-5.1-19.5-16.8-18-29.1c1.8-14.2,10.2-23.9,26.2-27.3c-6.4-8.6-27.8-23.9-41.1-30
	c-0.8-0.1-1.7-0.3-2.7-0.1c0,0,0.3-0.3-0.4-0.9c-7.1-2-14.3-3.9-22-6.6c-6.3-0.6-12.4-1-19.2-1.6c2.9,12.4,5.6,23.6,7.5,35.6
	c-5.4,1.9-9.7,0.1-11.1-4.4c-2.4-7.7-3.2-15.8-5.5-23.6c-1.5-5.6-4.3-10.8-6.8-16.6c-0.3-0.5-0.5-0.9-0.5-2.1
	c-1.5-6.6-2.9-7.1-9.6-6c-20.4,3.3-40.7,7.8-61.3,8.7c-27.6,1.3-55.4,0.3-83.1-1.2c-18.3-1-36.3-4.5-54.4-7.3
	c-3.6-0.6-5.4,0-6.4,2.9c-1.1,3.4-2.2,6.7-3.7,10.9c-0.5,1.5-1,3.1-2.2,5c-3.3,12.5-7.1,25-9.6,37.6c-3.2,16.6-5.2,33.4-7.9,51
	c-0.1,1.2-0.3,2.2-0.3,3.4c0,0-0.1,0-0.6,0.8c-0.1,7.9-0.4,15.7-0.3,23.5c0.1,3.4,1.3,6.7,1.7,10.9c2.2,5.6,4.5,11.1,6.9,17.5
	C337.1,523.6,341.1,528.3,345.5,533.3 M652.9,198.4c0.8,8.4-4.9,17,1.5,25.3c2.7-3.7,7-7.1,0.5-9.5c0-3.1,0.1-5.5,0-7.9
	c-0.3-2.9-0.9-5.7-0.5-9.2c0-11.6,0-23.2,0-34.7c-0.8,0-1.4,0-2.2,0C653.8,174.2,651.1,185.9,652.9,198.4 M651.2,436.4
	c-0.1,0.5-0.1,0.9-0.8,2.1c-1.8,13.2,10.7,20.7,20.2,21.2c9.8,0.6,18.4-8.5,18.3-19.5c-0.9-9.6-8-17.4-17.1-18.6
	c-8.2-1-16.2,4.1-20.8,13.1c-0.1,0.1-0.3,0.2-0.3,0.3C651,435.3,651.1,435.5,651.2,436.4 M677.4,217c-0.3-8.7-0.4-17.4-0.3-27.1
	c0-5.5-0.1-10.9-0.1-16.4c-0.1-8-7.4-16.6-14.8-17.3c0,17.9,0,35.8-0.3,54.7c0.1,4.1,0.1,8.1,0,13.2c0,7,0,13.9,0,21.2
	C672.9,242.4,678.6,229.5,677.4,217 M323.3,400.8c0.3-1.5,0.5-2.9,1.1-5.3c0.4-2.1,0.9-4.2,1.5-7c1.1-3,2.2-6,3.3-9.1
	c-2.9-0.8-5-1.6-7-2c-2-0.3-4.3-0.7-6.3-0.3c-12.4,2.3-17.7,8.2-19,21.8c1.1,11.5,8.8,19,22.2,20.8
	C320.2,413.7,321.5,407.6,323.3,400.8 M246,155.8c-3.6,2.8-8.7,5-10.3,8.6c-2.4,5.5-2.3,11.8-3.8,18.7c0,10.5-0.6,20.9,0.1,31.4
	c0.5,7.5,2,15.1,4.3,22.4c1.5,4.8,5.2,8.8,11.6,9.6c0-3.4,0-6.2,0-9.1c0-24.7,0.1-49.5,0.1-74.2C248.2,160.9,247.4,158.4,246,155.8
	 M284.6,406.9c0-4.4-0.1-8.7,0.3-13.9c2.2-9.8,7.5-17.6,17.6-23.6c-17.6-7-34.5-13.6-51.1-20.2c-2.6-1-5.1-2.3-6.9-4.2
	c-7.3-7.5-14.3-15.4-21.3-23.1c-7-7.5-13.9-15.2-21.1-22.5c-4.3-4.4-15.4-5.1-17.7-1c-6.1,10.5-15.4,17.5-27.7,22.5
	c-1,0.3-2,0.7-2.9,1.3c0,0-0.1-0.2-1,0c-4.7,1.3-9.4,2.7-14.7,4.1c0.3,6.7,2.2,13.2,7,18.5c15.7,17.1,31.5,34,47.6,50.7
	c9.2,9.6,19.4,18.7,32.8,23.3c12.1,4.1,24.5,8,37.2,10.1c11.1,1.7,22.6,0.7,34.1-3.1c-3.3-4.3-6.4-8.4-9.8-13
	C286.1,411.1,285.3,409.5,284.6,406.9 M495.9,664.4c-7.3,4.9-12.8,10.9-16.2,18.5c-1.8,3.8-1.5,5.9,3.8,5.8
	c11.6-0.2,23.4-0.3,36.1-0.3c16.6,0,33.2,0,50,0C564.7,665.6,525,644.6,495.9,664.4 M414.4,664.6c-6.8-4.1-13.4-8.6-22.1-8.7
	c-18.4-0.3-33.6,5.6-45.1,18.7c-3.3,3.7-5.4,8.4-8.6,13.4c20.3,0,38.8,0,58.5,0.3c11.7,0,23.4,0,36,0
	C429.1,678.3,424.4,670.3,414.4,664.6 M432.5,566.9c-1.5-0.8-3.1-2.3-4.7-2.3c-8.7-0.2-17.2,0-26.8-0.3c-14.2-2-28.2-3.9-43.2-6
	c-0.5,11-1.1,23-2.2,35.8c0.1,18.9,0.3,37.9,0.4,58.4c5.5-2.8,8.8-4.4,13.1-6.2c16.9-4.2,33.1-3.6,48.9,5.2c2.9,1.7,5.7,3.5,9.2,5.6
	C432.9,627,432,597.5,432.5,566.9 M70.1,264.7c6.6,9.1,12.3,18.7,19.9,26.9c14.9,15.8,33.8,23.9,57.3,19.2
	c15.6-3.3,29.2-18.3,29.7-32.2c2.3-17.8-6.3-31.7-19-44c-2.7-2.7-6.6-5-11.4-2.8c-4,1.9-6.9,4.4-6.5,8.9c0.3,2.8,0.6,5.7,1.5,8.4
	c1.4,4.5,3.3,9.1,5.5,15.2c-9.1,0-16.9-0.5-24.5,0.1c-8.9,0.6-16-2-22-7.9c-5.5-5.3-11.2-10.5-16.9-15.7c-4.5-4.2-10.1-5-15.4-2.8
	c-5.5,2.2-5.5,7.4-4.3,12C65.5,254.8,68.1,259.3,70.1,264.7 M428.6,352.1c19.8-0.1,39.6-0.1,60.4-0.2c2-0.2,4-0.3,6-0.5
	c28.6-2.2,56.9-5.9,83.6-15.8c25.4-9.4,44.2-25.9,57.1-48.9c3.1-7.3,6.9-14.5,9.3-21.9c8.3-25.7,4-52,4.6-79.1
	c-0.5-14.7,0.5-29.7-1.7-44.2c-4-26.7-18.1-49.3-37.8-69.3c-15.3-15.4-33.2-27.8-53.6-37.3c-29-13.7-59.7-20.9-92.2-22.9
	c-25.4-1.5-50,2.2-74.2,9.3c-31,9.1-58.7,22.8-81.8,43.8c-16.6,15.1-29.9,32.2-38.4,52.3c-5.7,13.4-9.1,26.9-9.1,42
	c0,28.1-0.5,56.1,0,84.2c0.3,12.4,4.3,24.5,10.5,36.6c1,2,2,3.9,3.2,5.9c14.8,24.8,35.5,44.2,65.6,52.7c17.2,4.9,35.2,7.3,53.1,10.1
	C404.5,350.6,416.1,350.8,428.6,352.1 M125.9,242.4c0.8-3.4,1.5-6.7,2-8.5c-10,0.6-20.3,1.2-31.3,1.9c9.6,7.4,16.3,18.1,31.8,18.2
	C127.4,249.7,126.7,246.4,125.9,242.4 M602.3,514.3c-2.6-2.1-5-4.3-7-6c-4.2,8.7-8.3,17.4-12.6,26.4c1,0.2,2.4,0.9,3.3,0.6
	c8.4-3,15.6-7.5,19.4-15.2C605.9,518.9,603.9,516.7,602.3,514.3z"/>
    <path class="st1" d="M496.8,648.7c-4.3,2.8-8.8,5.6-14,8.9c-1.3-9.9-2.9-19.2-3.6-28.6c-1.1-16.5-1.7-33.1-2.2-49.6
	c-0.1-4.2,0-8.4,0.9-12.5c0.3-1.2,3.1-2.6,4.7-2.7c7-0.2,14,0.7,20.9-0.1c14-1.7,28.7-0.2,42.3-6.2c-0.6,2.4-5.1,3.9-0.4,7
	c2.3-1.2,4.6-2.3,7.3-3.7c-2.6-1.6-4-2.6-5.5-3.5c2-0.8,4.1-1.7,6.5-2.4c-0.3,8.4-0.9,16.5-1.9,25.4c-2.2,1-4.1,1.4-6.9,2
	c1.3-1.9,2.6-3,2.3-3.6c-1.3-2.8-2.9-5.6-4.6-8.2c-0.4-0.7-1.9-1.5-2.6-1.3c-2.6,1-5,2.4-7.9,3.6c-9.8,3.6-19.5,6.4-28.2,10.9
	c-4.3,2.2-9.4,7.7-9.4,11.6C494.3,613.4,495.9,631,496.8,648.7z"/>
    <path class="st2" d="M532.6,573.2c2.4-1.3,4.9-2.6,7.4-3.6c0.5-0.2,2,0.6,2.6,1.3c1.7,2.7,3.3,5.3,4.6,8.2c0.3,0.6-1,1.6-2.3,3.6
	c2.8-0.6,4.7-1,6.9-1.5c0.6,1.3,1,2.8,1.5,4.9c-0.9,3.8,2.8,8.4-2.8,9.9c1,0.7,3.3,1.5,3.4,2.6c0.6,4.3,1,8.6,0.8,12.9
	c-0.8,13-1.8,26-2.7,39c-3.2-1-6.4-2.2-9.4-3.8c0.1-3.1-0.1-5.8,0-8.5c0.4-10.1,1.1-20.2,1-30.3c-0.1-9.9-1.1-19.6-1.7-29.5
	c-0.1-3.7-2.9-4.8-5.5-3.6C533.8,575.9,533.9,573.5,532.6,573.2z"/>
    <path class="st1" d="M578,545.8c4.2-0.5,8.6-0.6,13.5-0.6C587.5,545.7,582.8,545.9,578,545.8z"/>
    <path class="st1" d="M606.8,541c1.3-1.6,2.9-3.1,5.1-4.5C610.6,538.1,609,539.8,606.8,541z"/>
    <path class="st1" d="M560.6,552.2c1.3-1.4,3.2-2.6,5.4-3.7C564.7,549.7,562.9,551,560.6,552.2z"/>
    <path class="st3" d="M574.8,668.3c-1.1-0.6-2.3-1.6-3.4-3C572.6,665.9,573.7,666.9,574.8,668.3z"/>
    <path class="st3" d="M571.4,664.6c-1.3-0.7-2.4-1.9-3.8-3.3C568.9,662,570.2,663.1,571.4,664.6z"/>
    <path class="st1" d="M600.8,542.2c1.1-0.6,2.9-1,5-1.3C604.6,541.4,603,541.8,600.8,542.2z"/>
    <path class="st0" d="M214.1,159.2c0.6,0.6,1.4,1.2,2.3,2.1c0.3,0.2,0.3,0.2,0.1-0.1c-0.8-0.8-1.5-1.4-2.3-1.9
	C214.4,159.2,214.2,159.2,214.1,159.2z"/>
    <path class="st1" d="M596.9,543.4c0.5-0.6,1.5-1,2.9-1.4C599.3,542.5,598.4,543,596.9,543.4z"/>
    <path class="st1" d="M593.3,545.6c0.1-0.6,0.8-1,1.8-1.5C594.9,544.6,594.3,545.1,593.3,545.6z"/>
    <path class="st4" d="M618.8,532.6c0.4-0.2,0.9-0.3,1.7-0.5c-0.1,0.6-0.5,1-1.3,1.3C618.8,533,618.8,532.6,618.8,532.6z"/>
    <path class="st3" d="M567.4,660.4c-0.6,0.3-0.9,0.1-1-0.6C566.9,659.7,567.1,659.9,567.4,660.4z"/>
    <path class="st3" d="M566.5,659.2c-0.4,0.1-0.8,0-1.1-0.5C565.7,658.5,566.1,658.8,566.5,659.2z"/>
    <path class="st3" d="M565.3,658.1c-0.4,0.1-0.8-0.1-1-0.6C564.6,657.4,564.9,657.5,565.3,658.1z"/>
    <path class="st5" d="M441.1,651.6c-0.1-0.3,0-0.8,0.5-1.2C441.9,650.8,441.6,651.1,441.1,651.6z"/>
    <path class="st3" d="M576,670.5c-0.4,0-0.8-0.2-1-0.9C575.4,669.5,575.8,669.8,576,670.5z"/>
    <path class="st1" d="M618.6,532.6c0.3,0,0.3,0.6,0.3,0.8c-0.3,0.2-0.5,0.2-1.1,0.1C617.7,532.9,617.9,532.7,618.6,532.6z"/>
    <path class="st1" d="M554.6,555.3c-0.1-0.5,0.1-0.8,0.6-1.2C555.5,554.6,555.2,555,554.6,555.3z"/>
    <path class="st1" d="M558,554.3c-0.3-0.5,0-0.8,0.6-1.3C558.9,553.3,558.7,553.8,558,554.3z"/>
    <path class="st1" d="M616.1,534.4c-0.1-0.5,0-0.8,0.6-1.2C617,533.7,616.8,534.2,616.1,534.4z"/>
    <path class="st1" d="M612.8,536.6c-0.1-0.5,0.1-0.9,0.6-1.2C613.6,535.9,613.4,536.3,612.8,536.6z"/>
    <path class="st6" d="M261.2,158.3c-0.6-14.3,2.8-27.9,8.4-41.2c8.6-20.1,21.8-37.2,38.4-52.3C331.2,43.7,359,30,389.9,21.1
	c24.3-7.1,48.9-10.8,74.2-9.3c32.4,2,63.2,9.2,92.2,22.9c20.3,9.6,38.3,21.8,53.6,37.3c19.7,20,33.8,42.6,37.8,69.3
	c2.2,14.5,1.3,29.5,1.1,44.5c-0.8-4.3-1.1-8.7-1.4-13.5c-7.9,0-15.2,0.2-22.3-0.1c-4.7-0.2-6.4,1.4-6.3,5.7
	c0.3,15.1,0.8,30.1-0.3,45.1c-0.5,8.1-3.1,16.5-6.1,24.3c-5,12.7-14.3,22.5-25.8,31c-13,9.6-27.8,14.9-44.2,15
	c-54.6,0.5-109.3,0.1-163.9,0.2c-25.8,0.1-47.5-7.4-65.2-25.1c-14.7-14.5-22.5-31.2-22.6-51c0-13,0-26,0-39c0-2-0.3-3.8-0.4-5.7
	c-9.8,0-19,0-28.3,0C261.7,167.8,261.5,163.1,261.2,158.3 M614,151c0.1,0.3,0.4,0.6,0.5,0.9c-0.1-0.5-0.3-1,0-2.2
	c0.4-0.7,1.1-1.6,1-2.2c-2.4-7.9-5-15.8-7.7-24.4c-11.9-20.7-31.5-31.8-55.5-37.6c-2.2-0.6-4.6-0.2-7.4-1c-1.3-0.3-2.7-0.9-4-0.9
	c-60.4,1.3-120.9-2.8-182.2,1.7c-1,0.3-1.9,0.6-3.1,0.9c0,0-0.1,0-0.9,0c-1.9,0.2-4.1,0.1-5.7,0.8c-13.3,5.5-26.2,11.5-35.7,21.9
	c-6.6,7.3-12.5,15.1-15.1,25.2c-1.1,5.2-2.3,10.5-3.4,16.1c2-0.8,3.3-1.3,5.1-1.9c0,25.2,0,49.8,0,74.4c0,2.7,0.8,5.2,1.5,8.7
	c6.5,30.9,35.4,53.8,72.3,54.1c45.2,0.3,90.4,0.1,135.5,0c13.4,0,27.1,0.2,40.3-1.4c25.2-2.9,42.3-16.6,53.2-36.8
	c7.9-14.4,7.4-29.8,7.1-45.4c-0.3-17.2,0-34.4,0.4-52C611.8,150.3,612.8,150.3,614,151z"/>
    <path class="st7" d="M325.8,462.1c2.6-16.7,4.5-33.6,7.7-50.2c2.4-12.7,6.4-25.1,10.5-37.9c2.4-0.1,4.1-0.2,5.6,0
	c19.5,2.9,38.9,6.4,58.6,8.7c25.2,3,50.3,4.4,75.7,2.1c6-0.6,11.9-1.2,17.9-1.7c11.1-1,22.1-2,34.2-3c-1,8-2.6,15.4-2.9,22.8
	c-1.3,23.6-4.2,46.9-9.4,70c-3.3,14.9-11.7,26.2-26,33.6c-12,6-24.9,10.7-37.4,15.7c-1.8-2.3-3.6-4.3-5.7-6.7
	c-3.8,7.7-7.8,7.1-16-0.8c-2.3,1-4.3,2.7-5.7,2.3c-5-1-9.4,0-13.8,1.9c-0.9,0.3-2,0.5-2.9,0.3c-5.6-0.8-11.1-1.7-16.6-2.6
	c0.3-0.5,0.9-1.6,0.9-1.6c-6.4-2-12.3-5.1-18.4-5.3c-6.4-0.2-10.2-5.8-17.6-4.5c-4.3,0.7-8.8-7.3-14.7-6.7
	c-7.7,0.8-10.1-5.6-15.6-7.2c0.3-1,0.6-2.2,1-3.6c-3.2,1.4-5.9,2.7-8.6,3.8c-0.6-0.2-1.1-0.6-1.8-0.8c5.4-4.8,3.3-9.4,1.1-14.1
	c-0.3-0.5,0.8-1.4,0.6-2c-0.6-2.7,2.8-5.9-1.1-8.2c0,0,0.1,0,0.5-0.1C326.1,464.7,325.9,463.5,325.8,462.1 M420.7,410.6
	c-4.1,7.3-5.9,15-5.6,23.1c0.8,26.6,34.6,42.5,56.4,31.1c1.1-0.6,2.2-1,4.1-1.7c2.9-2.2,6-4.4,9.7-7c4.9-5.3,7.8-11.5,9.8-18.8
	c-0.3-4.6-0.6-9.3-0.9-14.7c-1.9-8.2-6-15.4-13.1-20.8C463.3,388.3,433.8,392.2,420.7,410.6z"/>
    <path class="st8" d="M261.2,158.8c0.5,4.3,0.8,9.1,1,13.9h28.5c0.1,1.9,0.4,3.7,0.4,5.7c0,13,0,26,0,39c0,19.7,7.9,36.3,22.6,51
	c17.7,17.5,39.4,25.2,65.2,25.1c54.6-0.2,109.4,0.2,164.1-0.2c16.3-0.1,31.2-5.2,44.2-15c11.5-8.5,20.8-18.5,25.8-31
	c3.1-7.8,5.6-16,6.1-24.3c1-15,0.4-30.1,0.3-45.1c0-4.3,1.5-5.9,6.3-5.7c7.3,0.2,14.6,0.1,22.5,0.1c0.4,4.8,0.6,9.2,1.3,13.9
	c0,26.4,4.3,52.7-4,78.4c-2.4,7.5-6.1,14.6-10,22.1c-2.7,0.7-5.1,0.9-6.6,2.1c-5.1,3.7-10,7.9-15.1,11.6c-2.2,1.6-4.7,2.8-7.4,4.3
	c-0.4-0.5-1.1-1.5-1.9-2.6c0.5,0.5,0.9,1,1.4,1.5c-3.8,0.2-7.8,0.5-11.6,0.7c1.1,1,2.3,2.2,3.3,3.3c-1.9,1.5-3.8,3-5.9,4.4
	c-0.9,0.6-2.4,1.6-2.7,1.4c-4.1-3.4-4.6,0.3-6.1,2.3c-2,2.4-3.4,4.6-8.2,3.6c-3.2-0.7-7.3,1.7-10.9,2.9c0,0,0-0.9,0-0.6
	c-5.1,1.7-10.5,3.7-15.7,5.6c-0.1-0.2,0.4,0.7,1.1,2.6c-1.9-1.2-2.9-1.9-4.1-2.6c-0.3,0.9-0.5,1.7-0.9,2.8
	c-6.4-3.3-20.6-1.2-21.8,2.8c-1.8,0.1-4.6-0.2-5,0.5c-2.9,6.3-6.6,1.7-10.1,0.8c0,0.5,0,0.9-0.1,1.4c-2.2,0-4.5,0-6.6,0
	c0,0,0,0-0.3-0.2c-4.6,0.6-8.9,1.4-13.4,2.2c0,0.1-0.1-0.6-0.8-2.4c-0.9,2.6-1.4,3.8-2,5.6c-0.8-2-1.3-3.5-1.9-5.2
	c-1.9,1.9-3.6,3.6-5.2,5.2c-0.8-0.3-0.8-0.3-1.5-0.7c0.3-1,0.5-2.1,1-4.2c-4.2,1.2-7.7,2.1-11.1,3.1c0,0,0,0-0.1-0.3
	c-7-3.3-13.8,0-21.2,0c-1.3-1-3.2-2.6-5.1-4.2c-4.7,5.1-11.9-0.9-16.6,3.4c0.3-0.6,0.5-1.3,0.6-1.6c-4.2,0.2-8,0.3-11.9,0.6
	c-0.1-1.3-0.4-2.4-0.4-3.1c-5.2,0.3-10,0.8-14.8,1.2c-0.5-0.9-1.3-2.1-2.3-3.8c-0.6,1.9-1.1,3-1.9,4.9c-1.8-1.2-3.2-2.1-4.5-2.9
	c-0.6,0.9-1.1,1.6-1.1,1.6c-1.5-2.1-2.9-4.1-4.7-6.6c-0.8,2.4-1.3,3.9-2.2,6.9c-4.3-6.3-8.9-6-12.3-2.9c-1.1-1.5-2.2-4.2-3.1-4.2
	c-4.3,0.1-7.8-0.8-10.2-4.3c-0.1-0.2-1.3,0-2.2,0c0.6,1.4,1,2.3,1.4,3.3c-0.6,0.5-0.6,0.5-1.1,1c-4.7-2.3-8.9-6.3-14.7-5.8
	c1-0.3,2-0.7,3.2-0.9c0-0.5,0-0.5-0.1-0.9c-4.7-0.8-9.4-1.5-14.3-2.3c-0.3,0.7-0.5,1.4-1.1,2.8c-1.3-3-5-5.3-5.2-6.3
	c-2.4-6.5-8.2-5-11.6-5.6c-3.6-3.6-6.5-6.5-9.4-9.5c-0.1-0.2-0.3-0.2-0.4-0.3c0.1,0.1,0.3,0.3,0.4,0.8c-1.3,3.4-2.4,3-3.6,0.2
	c-0.8-2-1.5-3.9-2.4-6.5c-0.8,1.4-1.3,2.1-1.7,2.9c-1.5-0.6-3.3-0.9-4.6-1.9c-1.5-1.2-2.6-2.8-3.8-4.2c1.7-0.1,3.3-0.2,5.2-0.3
	c-0.5-5.7-5.1-7-10.9-7.1v-4.3c-1.9,0.2-3.4,0.5-5,0.7c-6.1-11.3-10.2-23.3-10.5-35.8C260.3,215.3,260.8,187.2,261.2,158.8
	 M514,331.6C514,331.6,514.1,331.4,514,331.6z"/>
    <path class="st9" d="M113.8,46.8c4.9,2.1,10.7,3.4,14.6,6.5c10.2,8.5,19.7,17.9,29.4,26.8c3.7,3.4,7.5,6.5,11.6,10.5
	c0.8,0.8,1.1,1,1.7,1.3c0,0-0.1,0-0.1,0.3c0.5,0.5,0.9,0.6,1.3,0.8c0,0-0.1,0.1-0.1,0.3c0.5,0.5,0.9,0.6,1.3,0.7
	c0,0-0.1,0.1-0.1,0.3c0.5,0.5,0.9,0.6,1.3,0.7c0,0-0.1,0.1-0.1,0.3c0.5,0.5,0.9,0.6,1.3,0.7c0,0-0.1,0.1-0.1,0.3
	c0.5,0.5,0.9,0.6,1.3,0.7c0,0-0.1,0.1-0.1,0.3c0.5,0.5,0.9,0.6,1.3,0.7c0,0-0.1,0.1-0.1,0.3c0.5,0.3,0.9,0.5,1.3,0.7
	c0,0-0.1,0.2,0,0.5c0.5,0.3,0.9,0.5,1.3,0.6c0,0,0,0.1,0,0.3c0.4,0.5,0.8,0.6,1.1,0.7c0,0-0.3,0.2-0.1,0.5c2.2,1.9,4.2,3.5,6.1,5
	c0,0-0.4,0.3-0.1,0.6c1.8,1.4,3.3,2.6,5,3.7c0,0-0.3,0.1-0.1,0.5c2,2,4.1,3.6,6,5.3c0,0-0.1,0.1-0.1,0.3c0.5,0.5,0.9,0.6,1.3,0.8
	c0,0-0.1,0-0.1,0.3c0.5,0.3,0.9,0.6,1.3,0.7c0,0-0.1,0.2,0,0.5c0.5,0.3,0.9,0.5,1.3,0.6c0,0,0,0.1,0,0.5c1.1,1.7,2.3,3,3.4,4.3
	c0,0-0.1,0-0.1,0.3c0.5,1.3,0.9,2.2,1.4,3c-0.3,3.8,0.6,8-0.8,11.5c-5.6,13.6-17.6,22.8-28.9,32.4c-2.9,2.4-5.5,5.2-8.4,7.7
	c-15.1,12.5-29.6,25.7-45.7,37.2c-10.1,7.3-19.8,5.5-29-2.6c-20.6-17.9-40.3-36.3-60.5-54.6c-6.3-5.6-13.9-10.3-15.8-18.7
	c-1.3-5.1-0.8-10.6-0.5-16.3c8.4-6.9,16.2-13.1,23.9-19.9c16.9-14.7,33.2-30,50.4-44.2c6.3-5.1,11.5-13,22-12.2
	C113.9,48.1,113.9,47.5,113.8,46.8 M134.8,179.6c6.9,3,17.4-0.7,19.8-7.2c0.1-0.2-0.8-0.6-0.8-1.7c2.8-5.6,0.5-10.1-3.8-13.8
	c-4.1-3.5-9.2-5-14.9-3c-1.7,0.6-4.3,0.8-5.5,0c-7.1-5.5-15.2-9.9-13.9-21c0.9-6.9,3.8-11,8.8-15.1c4.1-3.3,8.2-4.2,13.7-3
	c8.2,1.7,16-3.8,17.2-11c1-6.4-4.5-13.7-11.2-14.9c-7.9-1.3-16.5,3.1-17.4,10.2c-0.6,5-3.2,7.7-7,10.6c-8.6,6.4-8.4,6.5-16.7-0.2
	c-3.6-2.9-7.1-5.2-6.5-10.7c0.5-4.8-6.8-9.8-12.5-10c-6.5-0.2-11.5,2.3-14.2,7.5c-2.4,5-1.7,9.6,1.9,13.8c3.7,4.2,9.7,5.5,15.7,4.1
	c1.9-0.5,4.6-0.3,6,0.6c8.6,5.6,16.2,11.7,13.1,22.9c-0.3,1,0.3,2.3-0.1,3.3c-0.6,1.6-1.4,3.4-2.7,4.5c-2.2,2.1-5,3.6-7.1,5.7
	c-3.1,2.9-6,4.6-10.5,2.3c-1.5-0.8-4-0.7-5.7-0.3c-6.6,1.3-11.6,6.9-12.3,13.2c-0.5,4.8,3.1,9.3,9.7,11.8c3.3,1.3,6.6,4.6,10.5,0.5
	c2.7-2.9,8-5.5,8-8.1c0-6.7,5.1-9.5,9.2-13.4c1.4-1.3,3.2-2.8,5-3.1c4.1-0.8,15.4,7.7,15.4,11.5C126,171.9,129.6,175.6,134.8,179.6z
	"/>
    <path class="st8" d="M460.1,522.6c12.5-5.2,25.4-9.9,37.3-16c14.2-7.2,22.7-18.7,26-33.6c5.1-23.1,8.2-46.4,9.4-70
	c0.4-7.4,1.9-14.7,2.9-22.8c-12.1,1-23.1,2-34.2,3c-6,0.6-11.9,1.2-17.9,1.7c-25.3,2.3-50.6,0.9-75.7-2.1
	c-19.5-2.3-39.1-5.8-58.6-8.7c-1.5-0.2-3.2-0.1-5.4-0.2c0-1.5,0.5-3.1,1.5-5.1c2.6-0.8,4.5-1.3,4.7-1.4c7,1,12.8,2,18.4,2.9
	c5.9,0.9,12.8-0.7,17.2,5.3c0.5-1.3,0.9-2.4,1-2.8c6.5,1.4,12.6,3.1,18.8,3.7c6.1,0.6,12.4-0.1,18.6,0.1c8.8,0.3,17.6,1.5,26.4,1.4
	c8.4-0.1,16.7-1.5,25.2-1.9c8.3-0.3,16.6-0.6,24.9-0.1c10.3,0.6,20.2-4.3,30.6-1.9c1,0.2,2.8-0.2,3.3-0.9c3.8-5.6,9.7-3.8,15.2-4.2
	c2.8-0.1,5.7-0.8,7.3-1c2.3,2,4.1,3.6,5.9,5.2c-0.1-4.2-4.7-7.7,0.1-11.5c0.3,0.5,0.5,0.9,0.8,2.2c0.1,1.4,0.1,2.2,0.4,2.9
	c3.6,14.5,7.1,29,10.7,43.7c2,12.9,4.6,25.8,6,38.7c1.5,13.1,1.8,26.5,2.8,39.7c1,12.8-2,24.5-11,34.7c-0.6-0.9-1.3-2.1-0.9-2.8
	c1.8-2.9,1.4-5.6-1.4-7.3c-1.3-0.8-3.8-0.3-5.6,0.2c-1.8,0.6-2.8,3.4-2.2,4.4c0,0,0,0,0,0.3c-0.8,0.8-1.7,1.4-2.4,1.9
	c0,0,0,0-0.3-0.2c-0.9,1.2-1.5,2.6-2,3.5c-3.4,0.2-7,0.6-10.6,0.8c0.5,1.2,0.9,2,1.3,2.8c-0.3,0.1-0.5,0.2-0.8,0.3
	c-1.1-1.2-2.4-2.3-3.8-3.7c-0.8,1.4-1,2.6-1.9,3.3c-3.4,2.6-4.2,8.5-11.7,6.4c-3.1-0.8-7.5,2.8-12,4.6c-4.2-4.2-8-4.3-13.5,0.2
	c-0.8-1.3-1.3-3.9-2.3-4.1c-2.4-0.2-5.1,0.5-7.7,0.9c-2,0.5-4.1,1.2-6.3,1.5c-0.4-0.1-0.8,0.1-1.5,0.2c-5.4,0.7-11,5.1-13.7-3
	c-1.4,2.1-2.3,3.6-3.4,5.2c-3.6-4.4-15.3-3-20-0.5c-5.1-0.8-9.1-2.1-12.9-1.9c-6.4,0.3-12.8,2.3-19,2.4c-8.9,0.2-18-0.3-26.8-1.2
	c-6.1-0.6-12.1-2.3-18.1-3.6c0.8-1.7,1.3-2.8,1.9-4.4c-7-0.8-14.7,3.1-19.7-4.4c0,2,0,2.9,0,3.7c-0.6-0.3-1.4-0.6-2-0.9
	c-1.5-0.9-1.1-4.8-4.9-2.9c-5.4-2.7-10.6-5-15.8-7.3c-2.2-5.6-4.5-11.1-6-17.2c8.4-3.4,8,7.4,14.7,6.6c0.3,0,1,0.7,1,1
	c0.1,4.8,4.5,4.4,7.7,5.8c4.2,1.9,7.9,4.6,11.9,7.1c0.4,0.2,0.4,0.7,0.6,1.2c0.8-1.6,1.5-2.9,2.2-4.4c4.2,5.7,14.3,2.1,16.2,10.2
	c0.4-4.1,2.4-4.2,5.4-2.6c1.4,0.8,3.2,2.1,4.6,2c7-0.5,13.8-0.8,17.5,6.3c1.7-1.9,2.8-3.1,4.2-4.9c1.4,1.7,2.6,3.3,3.7,4.9
	c1.3-1.9,2.7-3.7,4.1-5.8c1,1.2,1.9,2.2,2.9,3.4c0.3-1.4,0.5-2.2,0.3-1.4c4.3,0.3,8.4,1.7,11.7,0.7
	C443.9,529.1,452,525.6,460.1,522.6z"/>
    <path class="st10" d="M157.8,321c11.4-5.1,20.7-12.2,26.8-22.6c2.3-4.1,13.4-3.4,17.7,1c7.3,7.3,14.2,15,21.1,22.5
	c7.1,7.7,14,15.6,21.3,23.1c1.8,1.9,4.3,3.1,6.9,4.2c16.6,6.7,33.4,13.2,51.1,20.2c-10.1,5.9-15.3,13.8-18,24.2
	c-1.4,2.4-2.3,4.3-3.2,6.2c-0.6-0.1-0.5-0.1-1.3-0.2v-3.3c-2,0.3-2.3,5.6-5.4,1.4c-0.4,0.8-0.8,1.7-1.4,3
	c-6.9-3.7-14.9-1.4-22.2-3.8c-1-0.3-1.4-1.9-2.4-2.3c-5.6-2.4-11.4-4.6-17.2-7.1l0.5-3.3c-0.6-0.2-0.5-0.1-1.1-0.3
	c-1.3,2.1-2.7,4.1-4,6.2c-0.4-0.2-0.8-0.3-1-0.6c0.4-0.9,0.8-2,1.7-3.8c-2.8,0-5.4,0.3-7.7-0.1c-1.5-0.2-4.3-2-4.2-2.3
	c1.1-3.7-2.3-3.6-4.3-4.8c-1.9-1.2-3.8-2.3-6.1-3.7c1.9-0.7,3.1-1.2,4.2-1.6c-4.1-2.4-7.8-4.5-12-7c1.9-0.7,3.2-1.2,5.1-1.9
	c-14.2-3.9-19-15.9-28.1-23.7c-0.6,0.8-1.3,1.5-1.8,2.1c-1.1-1-2.6-2-3.1-3.1c-0.5-1.2,0.5-2.8,0-3.9c-0.5-1.2-2.7-3-3.2-2.8
	c-3.4,1.5-2.4-1.4-3.4-2.3c-1.9-1.6-3.7-5-7.5-3.1c-0.5-2.1-1-3.7-1.4-5.3c0,0,0.1,0.2,0.5,0.1C155.8,321.7,156.8,321.3,157.8,321z"
    />
    <path class="st11" d="M271.4,279.5c1.5-0.6,3.1-0.8,5-1v3.9c5.7,0.1,10.3,1.5,10.9,7.1c-1.9,0.1-3.6,0.2-5.2,0.3
	c1.3,1.4,2.3,3,3.8,4.2c1.3,0.9,3.1,1.3,4.6,1.9c0.4-0.7,0.9-1.5,1.7-2.9c1,2.6,1.7,4.5,2.4,6.5c1,2.7,2.3,3,3.6-0.2
	c0-0.3,0-0.3,0-0.3c2.8,2.9,5.7,5.7,9.3,9.3c3.4,0.6,9.3-0.8,11.6,5.6c0.3,0.8,4,3.3,5.2,6.3c0.5-1.5,0.9-2.2,1.1-2.8
	c4.9,0.8,9.6,1.5,14.3,2.3c0,0.5,0,0.5,0.1,0.9c-1,0.3-2,0.7-3.2,0.9c5.9-0.5,10,3.5,14.7,5.8c0.6-0.5,0.6-0.5,1.1-1
	c-0.4-0.9-0.8-1.7-1.4-3.3c0.9,0,1.9-0.2,2.2,0c2.4,3.4,5.9,4.3,10.2,4.3c1,0,2,2.6,3.1,4.2c3.3-3.1,7.9-3.4,12.3,2.9
	c0.9-2.9,1.4-4.3,2.2-6.9c1.8,2.6,3.2,4.5,4.7,6.6c0,0,0.5-0.8,1.1-1.6c1.3,0.8,2.7,1.7,4.5,2.9c0.6-1.7,1.1-3,1.9-4.9
	c1,1.7,1.8,2.9,2.3,3.8c4.9-0.3,9.6-0.7,14.8-1.2c0.1,0.7,0.3,1.9,0.4,3.1c3.8-0.2,7.7-0.3,11.9-0.6c-0.1,0.3-0.4,0.9-0.6,1.6
	c4.7-4.3,11.9,1.7,16.6-3.4c1.9,1.5,3.8,3.1,5.1,4.2c7.4-0.1,14.2-3.3,20.9,0c-0.5,0.5-0.9,0.7-1.3,0.8c0.1,0.1,0.3,0.3,0.3,0.3
	c0.5-0.2,0.9-0.6,1.3-0.8c3.4-0.9,6.9-2,11.1-3.1c-0.5,2.1-0.8,3.1-1,4.2c0.8,0.3,0.8,0.3,1.5,0.7c1.7-1.7,3.3-3.4,5.2-5.2
	c0.6,1.6,1.1,3.3,1.9,5.2c0.6-1.7,1.1-3,2-5.6c0.5,1.9,0.8,2.6,0.8,2.4c4.5-0.8,8.8-1.6,13.1-2.1c0,0.8,0,1.2,0,1.6
	c0.1-0.5,0.3-0.9,0.5-1.5c2.2,0,4.5,0,6.6,0c0-0.5,0-0.9,0.1-1.4c3.4,0.9,7.1,5.6,10.1-0.8c0.3-0.7,3.2-0.3,5-0.5
	c1.1-3.9,15.3-6,21.8-2.8c0.3-0.9,0.6-1.9,0.9-2.8c1.1,0.7,2.3,1.4,4.1,2.6c-0.8-1.7-1.1-2.7-1.1-2.6c5.4-1.9,10.6-3.7,15.7-5.6
	c0-0.3,0,0.6,0,0.6c3.7-1,7.7-3.6,10.9-2.9c4.7,1,6.1-1.3,8.2-3.6c1.5-1.9,2.2-5.7,6.1-2.3c0.3,0.2,1.9-0.8,2.7-1.4
	c2-1.4,4-2.9,5.9-4.4c-1.1-1-2.3-2.2-3.3-3.3c3.8-0.2,7.8-0.5,11.6-0.7c-0.5-0.5-0.9-1-1.4-1.5c0.8,1,1.5,2.1,1.9,2.6
	c2.6-1.5,5.2-2.7,7.4-4.3c5.1-3.8,10-7.9,15.1-11.6c1.5-1.2,4-1.4,6.3-1.9c-11.7,22.6-30.5,39.2-55.9,48.7
	c-26.7,9.9-55,13.6-83.6,15.8c-2,0.1-4,0.3-6.8,0.2c-20-0.5-39.3-0.6-58.6-0.6c-0.6,0-1.4,0.6-2,0.9c-11.5-0.9-23.1-1.3-34.5-3.1
	c-17.9-2.8-35.9-5.2-53.1-10.1c-30.1-8.5-50.8-27.9-65.6-52.7C273.5,283.8,272.5,281.9,271.4,279.5 M310.5,310.9
	c0.3,0.3,0.5,0.7,0.8,0.9c0.3-0.2,0.5-0.3,0.6-0.6C311.6,311,311.3,310.8,310.5,310.9 M314.6,311.5c0.1,0.2,0.1,0.3,0.3,0.6
	C315,311.8,315,311.6,314.6,311.5z"/>
    <path class="st12" d="M596.6,485.4c0,0-0.1-0.3,0.1-1c0.1-1.9,0-2.9-0.1-4.1c-0.1-0.8-0.1-1.7,0-3.5c0.3-6.7,0.3-12.5,0.3-18.5
	c5.2-6.3,10.5-12.4,16.2-19.2c1-1.2,1.5-1.9,2.6-2.7c1.8-1,3.1-1.9,4.7-2.9c-9.1-5.5-18-9.8-22.3-18.8c-0.3-0.5-2-0.2-3.2-0.2
	c0,0.1,0-0.1,0-0.5c0-2.1,1.4-4.4-2.3-4.3c0.5-0.8,1.1-1.3,1.1-1.6c-2-9.4,3.2-15.8,11.1-21.2c6-2,11.5-3.9,17-5.8
	c0,0-0.3,0.3,0,0.6c1,0.3,1.9,0.5,2.8,0.7c13,5.3,34.6,20.6,40.9,29.1c-16,3.4-24.4,13.2-26.2,27.3c-1.5,12.3,6.4,24,18.3,29.8
	c-1.9,8-9.4,6-14.9,7.4c2,3.9,2,3.9-4.2,5.5c-0.5-0.2-1-0.2-1.4-0.2c0.5,0.1,1,0.2,1.5,0.7c-4,5.9-9.4,9.6-17,10
	c-2.3,0.1-5-1.4-6.8-0.7c-4.9,2.1-8.9,3-12.6-1.5c-0.4-0.3-1.9,0-2.9,0.1c0,0,0-0.1,0.1-0.5c-0.4-0.9-0.8-1.5-1.3-2.1
	c0,0-0.1-0.2,0-0.8C597.5,485.9,597,485.6,596.6,485.4z"/>
    <path class="st13" d="M70,263.9c-1.9-4.6-4.5-9.2-5.7-13.9c-1.1-4.4-1.1-9.6,4.3-12c5.5-2.2,11-1.4,15.4,2.8
	c5.6,5.2,11.4,10.2,16.9,15.7c6,5.9,13,8.6,22,7.9c7.7-0.6,15.6-0.1,24.5-0.1c-2.3-6.2-4.1-10.6-5.5-15.2c-0.9-2.7-1.3-5.6-1.5-8.4
	c-0.5-4.4,2.4-7.1,6.5-8.9c4.7-2.2,8.6,0.1,11.4,2.8c12.6,12.3,21.3,26.2,18.4,44.5c-7.7,3.4-8.6,12.3-16.7,14.3
	c-3.3,0.8-6.3,2.3-9.6,3.1c-2.6,0.6-6.5-0.5-7.7,0.8c-3.3,3.6-7.1,1.4-10.7,1.9c-1.5,0.1-3.1,0.3-5,0.6c-3.6-3.6-6.9-8.7-14.7-7
	c-0.4,0.1-0.9-0.3-1.4-0.7c-6.4-4.2-14.6-5.6-19.8-11.7c-1.9-2.3-5.7-3.3-8.3-5.1c-0.6-0.5-0.1-2.2-0.1-3.4
	c-0.6-0.3-2.2-0.6-2.9-1.4C77.1,267.6,75.3,263.6,70,263.9z"/>
    <path class="st7" d="M417.7,650.7c-15.4-8.1-31.7-8.7-49.4-4.6c-1.5-2.8-2-5.5-2.7-8.1c-0.6,0.1-1.5,0.2-1.7,0.2
	c0.6-3,1.7-5.8,1.5-8.4c-0.5-6.7-1.8-13.5-2.6-20.2c-0.3-2,0-3.9,0-5.9c-0.4,0-0.9,0-1.3-0.1c-0.4,1.6-0.9,3.1-1.3,4.8
	c-0.4-0.1-0.6-0.1-1-0.2c0.9-3.8,1.9-7.7,2.9-11.4c0.1,0.2,0.3,0.2,0.4,0.3c-0.1-0.2-0.4-0.3-0.4-0.9c3.7-3.1,4.7-6.5,3.7-10.7
	c-1.1-4.5,1.3-8,4.7-10.9c0,0,0,0,0.5,0c1.8-0.5,3.2-0.8,5-1.2c11,1.4,20.8,4.4,29.4,10.1c4.3,2.9,10.2,6.9,10.7,10.9
	c1.4,9.9,0,20-0.1,30.1C415.8,633.1,411.1,642.2,417.7,650.7z"/>
    <path class="st14" d="M563.7,518.2c-0.5-1,0.4-3.8,2.2-4.4c1.7-0.6,4.3-1,5.6-0.2c2.9,1.7,3.3,4.4,1.4,7.3c-0.4,0.6,0.3,1.7,0.5,3
	c-4.3,10.1-13.8,15.1-23.2,19.7c-11.6,5.8-24.4,7.4-37.7,7.5c-24.6,0.3-49.2,1.7-73.7,1.4c-22.2-0.2-44.7,0.7-66.5-4.6
	c-10.1-2.4-18.8-7.4-26.3-14.6c0.9-3,1.7-5.1,2.6-7.3l0,0c3.6-2.3,3.2,1.6,4.9,2.4c0.6,0.3,1.4,0.6,2,0.9c0-0.8,0-1.7,0-3.7
	c5.1,7.7,12.6,3.7,19.8,4.5c-0.8,1.6-1.1,2.7-1.9,4.4c6.1,1.3,12.1,3,18.3,3.6c8.9,0.9,18,1.4,26.9,1.2c6.4-0.1,12.8-2.1,19.2-2.4
	c3.8-0.2,7.8,1,12.9,1.9c4.7-2.7,16.6-3.9,20.2,0.5c1-1.6,2-3.1,3.4-5.2c2.7,8.2,8.4,3.7,13.8,3c0.5,0,0.4,0,0.5,0.2
	c0.1,0.6,0.3,0.8,0.4,1c0.3-0.5,0.5-0.9,0.8-1.4l0,0c2-0.6,4.1-1.3,6.3-1.7c2.6-0.5,5.1-1.3,7.7-0.9c1,0.1,1.5,2.7,2.3,4.1
	c5.6-4.5,9.3-4.4,13.5-0.2c4.5-1.9,9.1-5.6,12-4.6c7.5,2.1,8.2-3.8,11.7-6.4c0.9-0.6,1.1-1.9,1.9-3.3c1.4,1.4,2.7,2.6,3.8,3.7
	c0.3-0.1,0.5-0.2,0.8-0.3c-0.4-0.8-0.8-1.6-1.4-2.8c3.7-0.2,7.1-0.6,10.7-0.8c0.5-1,1.1-2.4,1.8-3.5c0.1,0.3,0.3,0.2,0.4,0.2
	c0.8-0.5,1.5-1,2.7-1.9c0.6-0.5,1-0.7,1.4-0.8C564.8,517.9,564.3,518,563.7,518.2z"/>
    <path class="st15" d="M532.3,573.2c1.8,0.3,1.5,2.7,4.3,1.4c2.6-1.2,5.4-0.1,5.5,3.6c0.4,9.9,1.5,19.6,1.7,29.5
	c0.1,10.1-0.6,20.2-1,30.3c-0.1,2.7,0.1,5.2-0.3,8.1c-15.4-4.1-30.3-3.7-45.2,2.4c-1.3-17.5-2.8-35.2-2.7-52.7
	c0-4.1,5.1-9.4,9.4-11.6C512.6,579.6,522.4,576.8,532.3,573.2z"/>
    <path class="st16" d="M563.7,361.5c-5,4.2-0.4,7.5-0.3,11.7c-1.8-1.6-3.6-3.1-5.9-5.2c-1.7,0.2-4.5,0.9-7.3,1
	c-5.5,0.2-11.4-1.4-15.2,4.2c-0.5,0.7-2.3,1.2-3.3,0.9c-10.5-2.4-20.3,2.4-30.6,1.9c-8.3-0.5-16.6-0.2-24.9,0.1
	c-8.4,0.3-16.7,1.9-25.2,1.9c-8.8,0.1-17.6-1-26.4-1.4c-6.3-0.2-12.5,0.6-18.6-0.1c-6.3-0.6-12.3-2.4-18.8-3.7
	c-0.1,0.3-0.5,1.5-1,2.8c-4.5-6-11.4-4.4-17.2-5.3c-5.7-0.9-11.5-1.9-18.4-2.9c-0.3,0-2.2,0.5-4.5,0.9c0.8-3.4,1.8-6.7,2.9-10.1
	c1-2.9,2.8-3.5,6.4-2.9c18.1,2.8,36.1,6.4,54.4,7.3c27.7,1.5,55.5,2.3,83.1,1.2c20.6-0.9,40.9-5.5,61.3-8.7
	C560.9,354.2,562.3,354.7,563.7,361.5z"/>
    <path class="st17" d="M153.1,322c0.9,1.5,1.3,3.1,1.9,5.6c7.3,9.2,14.4,17.5,21.6,25.9c4.9,5.7,9.7,11.4,14.2,17.1
	c-1.9,9.5,0.8,13.5,9.6,16.5c3.7,1.3,6.1,5.5,11.1,3.4c0,0,0.6,1.5,1.3,2c1.7,1.3,3.4,2.2,5.5,3.5c0.9,0.5,1.4,0.8,2,1.5
	c3.1,2.8,5.5,5.8,8.9,7.5c15.4,7.9,32.2,11.3,49.8,11.1c2.7,0,5.4-1.9,8-2.9c3.1,3.9,6.1,7.9,9.6,12.3c-11.5,3.8-23,4.9-34.1,3.1
	c-12.6-2-25-5.9-37.2-10.1c-13.4-4.5-23.5-13.7-32.8-23.3c-16.1-16.7-31.9-33.7-47.6-50.7c-4.9-5.2-6.6-11.7-7-18.5
	C143.3,324.8,148,323.5,153.1,322z"/>
    <path class="st18" d="M417.9,650.9c-6.8-8.8-2.2-17.9-1.9-26.6c0.1-10,1.5-20.2,0.1-30.1c-0.5-4.1-6.4-8-10.7-10.9
	c-8.4-5.7-18.4-8.7-29.6-10.3c-5.2-3.6-8.4-1.2-12,2c0.9,0.3,1.8,0.7,1.1,0.5c-1.7,2.6-3.2,4.5-4.2,6.6c-1.8,3.7-3.2,7.4-4.7,11.3
	c0.6-12,1.3-24,1.8-35.1c14.9,2.1,29.1,4.1,43.5,6.5c-1.5,2.1-3.3,3.6-5.4,5.5c7.9,0.9,15.1,1.7,20.7,2.3c1.3,1.9,2,3.5,2.3,3.4
	c1.3-0.3,2.3-1.2,2.2-1c3.6,0.9,6.1,1.6,9.8,2.6c-2.3-4.4-5.7-8.2,1.5-9.5c-0.3,29.5,0.6,59.1-5,88.9
	C423.9,654.8,420.9,653.1,417.9,650.9z"/>
    <path class="st19" d="M460.1,522.2c-8.2,3.4-16.2,6.9-24.6,9.2c-3.3,0.9-7.4-0.3-11.7-0.7c0.1-0.8,0,0-0.3,1.4
	c-1-1.3-1.9-2.2-2.9-3.4c-1.4,2.1-2.8,3.8-4.1,5.8c-1.1-1.5-2.4-3.1-3.7-4.9c-1.5,1.6-2.6,2.9-4.2,4.9c-3.7-7.1-10.5-6.7-17.5-6.3
	c-1.5,0.1-3.2-1.2-4.6-2c-2.9-1.7-5-1.5-5.4,2.6c-1.8-8-12-4.5-16.2-10.2c-0.8,1.4-1.4,2.8-2.2,4.4c-0.3-0.5-0.3-0.9-0.6-1.2
	c-3.8-2.4-7.7-5.2-11.9-7.1c-3.2-1.4-7.5-1.2-7.7-5.8c0-0.3-0.8-1.2-1-1c-6.6,0.8-6.1-10-14.4-7.1c-1.1-3.3-2.4-6.6-2.4-10
	c-0.3-7.8,0.1-15.7,0.5-23.9c4.3,1.9,0.9,5.1,1.5,7.9c0.1,0.6-0.9,1.5-0.6,2c2.2,4.6,4.1,9.3-1.1,14.1c0.6,0.2,1.1,0.6,1.8,0.8
	c2.7-1.2,5.4-2.3,8.6-3.8c-0.4,1.4-0.8,2.4-1,3.6c5.5,1.6,7.9,8,15.6,7.2c5.7-0.7,10.2,7.4,14.7,6.7c7.4-1.3,11.2,4.3,17.6,4.5
	c6.1,0.2,12.1,3.4,18.4,5.3c0,0-0.6,1.2-0.9,1.6c5.5,0.8,11.1,1.7,16.6,2.6c0.9,0.1,2,0,2.9-0.3c4.5-1.7,8.8-2.9,13.8-1.9
	c1.5,0.3,3.4-1.3,5.7-2.3c8.2,7.9,12,8.6,16,0.8C456.5,517.9,458.3,519.9,460.1,522.2z"/>
    <path class="st20" d="M395.9,688.3c-18.5,0-37,0-57.3,0c3.2-5,5.4-9.6,8.6-13.4c11.5-13.1,26.8-19,45.1-18.7
	c8.7,0.1,15.3,4.6,22.5,9.3c-0.3,2.1-1.1,3.6-1.3,5.2c-0.5,6.2-5.4,12.2-11,12.8c-6.9,0.7-13.8,0.9-20.8,1.5
	c-1.5,0.1-3.1,0.3-4.7,0.5c0.1,0.2,0.1,0.3,0.3,0.6C383.5,686.8,389.8,687.5,395.9,688.3z"/>
    <path class="st21" d="M496.6,663.9c28.3-19.6,68,1.4,72.9,24c-16.7,0-33.4,0-50.2-0.3c8.4-0.3,17.1-0.3,25.7-0.3
	c-1.1-1.5-2.3-2-3.4-2c-11-0.7-21.7,0.3-32.8-1.7c-8.7-1.6-13.9-11.5-9.6-18.2C498.3,664.8,497.5,664.4,496.6,663.9z"/>
    <path class="st22" d="M191.5,370.7c-4.9-5.7-9.7-11.4-14.6-17.1c-7.1-8.4-14.2-16.7-21.4-25.5c3.7-2.6,5.5,0.7,7.3,2.4
	c1,0.9,0,3.8,3.4,2.3c0.5-0.2,2.7,1.6,3.2,2.8c0.5,1.2-0.5,2.8,0,3.9s1.9,2.1,3.1,3.1c0.5-0.7,1.1-1.4,1.8-2.1
	c9.1,7.8,13.9,19.7,28.1,23.7c-1.9,0.7-3.1,1.2-5.1,1.9c4.2,2.4,7.9,4.5,12,7c-1.3,0.5-2.4,0.9-4.2,1.6c2.3,1.4,4.2,2.6,6.1,3.7
	c2,1.2,5.5,0.9,4.3,4.8c-0.1,0.5,2.6,2.1,4.2,2.3c2.3,0.5,4.9,0.1,7.7,0.1c-0.8,1.9-1.1,2.8-1.7,3.8c0.4,0.2,0.8,0.3,1,0.6
	c1.3-2.1,2.7-4.1,4-6.2c0.6,0.2,0.5,0.1,1.1,0.3l-0.5,3.3c5.9,2.3,11.6,4.6,17.2,7.1c1,0.5,1.4,2,2.4,2.3c7.3,2.4,15.3,0.2,22.2,3.8
	c0.6-1.3,1-2.1,1.4-3c3.1,4.2,3.3-1,5.4-1.4v3.4c0.6,0.1,0.5,0.1,1.1,0.2c0.9-1.9,1.9-3.8,3.1-5.8c0.4,4.2,0.4,8.6,0.3,13.6
	c-4.5,1.4-8.8,2.4-13.1,2.8c-7.9,0.7-15.6,0.2-22.7-3.8c-1.9-1-4.6-1-6.8-1.6c-0.9-0.7-2-2-3.4-2.6c-2.8-1.2-7.4-1-8.6-2.9
	c-2.8-4.3-5.7-3.8-9.6-2.3c-0.5-0.3-1.1-0.7-2-1.5c2.3-7.1-5.5-6.9-7.5-10.8c-0.6,1.2-0.9,2-1.4,2.9
	C202.5,382.7,200.3,373.7,191.5,370.7z"/>
    <path class="st23" d="M70,264.3c5.2-0.7,7.1,3.3,9.8,6.2c0.8,0.8,2.2,1,2.9,1.4c0,1.2-0.5,2.9,0.1,3.4c2.7,1.9,6.4,2.8,8.3,5.1
	c5.1,6.2,13.4,7.5,19.8,11.7c0.4,0.2,1,0.7,1.4,0.7c7.7-1.7,11.1,3.5,14.7,7c1.9-0.2,3.4-0.5,5-0.6c3.6-0.3,7.4,1.9,10.7-1.9
	c1.1-1.3,5.1-0.2,7.7-0.8c3.3-0.8,6.3-2.3,9.6-3.1c8.2-2,9.1-10.9,16.5-13.9c0.3,13.1-13.5,28.2-29,31.5
	c-23.5,4.9-42.4-3.4-57.3-19.2C82.4,283.5,76.7,273.7,70,264.3z"/>
    <path class="st24" d="M598.9,490.5c1.1-0.5,2.7-0.9,3.1-0.5c3.7,4.6,7.8,3.6,12.6,1.5c1.7-0.7,4.5,0.8,6.8,0.7
	c7.5-0.5,12.9-4.1,16.9-10c0-0.3,0-0.2,0-0.2c6.1-1.7,6.1-1.7,4.1-5.7c5.6-1.3,13,0.7,15.3-7.1c5.6,0.7,11.1,1.7,18,3.1
	c-2.9,3.3-5.6,6.7-8.8,9.8c-7.4,6.6-14.8,13.2-22.7,19.5c-6.8,5.3-14.9,8.4-24.1,7.2c-3.3-0.5-7.3-1.9-9.4-4.1
	C606,500.5,602.7,495.5,598.9,490.5z"/>
    <path class="st25" d="M689,441.1c0.1,10.1-8.6,19.2-18.3,18.6c-9.6-0.6-22-7.9-19.7-21.2c3.4-1.5,6.5-2.7,9.2-4.4
	c8.6-5.6,14.3-4.9,21.2,2.6C683.3,438.6,686.5,439.7,689,441.1 M666.3,438.5c-0.3,1.4-0.4,2.9-0.8,5.6c3.2-0.8,5.9-1,7.8-2.2
	c0.6-0.3-0.4-3.3-0.8-5C670,437.3,668.5,437.7,666.3,438.5z"/>
    <path class="st12" d="M232.5,182.2c1-6,0.9-12.4,3.3-17.9c1.5-3.6,6.8-5.8,10.7-7.9c0.4,20.3,0.4,39.9,0.4,59.6c-0.4,0-0.9,0-1.3,0
	c-0.1-1-0.1-2.1-0.3-3c-1.4,0.6-2.6,0.9-3.4,1.6c-4.9,3.5-5.9,3.1-6.9-2.9c-0.8-3.8-1.1-7.7-1.4-11.5
	C233.1,194.2,232.9,188.3,232.5,182.2z"/>
    <path class="st17" d="M604.3,387.1c-7.5,5.3-12.8,11.7-10.7,21.1c0.1,0.3-0.6,0.9-1.1,2.1c0.6,1.9,1.5,3.1,2.4,4.3
	c0,0-0.1,0.1-0.1,0.5c1.5,3,2.6,6.2,4.9,8.2c4.9,4.8,10.3,8.9,15.7,13.4c-0.5,0.7-1.1,1.3-1.9,2.2c-4.9-1.9-9.4-3.9-14.7-6.6
	c-1.5-0.6-2.3-0.7-3.2-0.8c-1.5-2-2.9-3.9-4.5-6.5c0-0.8-0.1-1-0.4-1.3c-0.1-0.6-0.3-1-0.3-2.1c0.4-0.9,0.3-1.2-0.3-1.3
	c-0.5-2.9-1-5.9-1.5-9.6c-0.1-1.6-0.3-2.6-0.4-3.5c-2.7-11.3-5.2-22.4-8.2-34.8c6.8,0.6,13,1.2,19.4,2.3
	C598.5,380.2,600.3,383.9,604.3,387.1z"/>
    <path class="st26" d="M355.8,593.5c1.8-4.1,3.2-7.9,4.9-11.5c1-2.1,2.6-4.1,4.2-6.6c0.6,0.2-0.3-0.1-1.1-0.5c3.6-3,6.8-5.5,11.5-2
	c-1,0.7-2.4,1.2-4.3,1.4c-0.6-0.2-0.8-0.2-0.9-0.3c0.1,0.1,0.3,0.3,0.4,0.5c-3.4,3-5.9,6.5-4.7,10.9c1,4.2,0.1,7.5-3.7,10.7
	c0,0.3,0,0.3,0,0.3c-0.9,3.8-1.9,7.7-2.8,11.5c0.4,0.1,0.6,0.1,1,0.2c0.4-1.6,0.9-3.1,1.3-4.8c0.4,0,0.9,0,1.3,0.1
	c0,2-0.3,3.9,0,5.9c0.8,6.7,2,13.5,2.6,20.2c0.3,2.7-0.9,5.3-1.5,8.4c0.1,0,1-0.1,1.7-0.2c0.6,2.6,1.1,5.3,2.2,8.1
	c-2.9,1.9-6.4,3.5-11.9,6.3C355.8,631.8,355.7,612.8,355.8,593.5 M357.2,603.9c-0.1-0.3-0.4-0.6-0.5-0.9c-0.1,0.7-0.3,1.5-0.4,2.2
	C356.7,605,357,604.7,357.2,603.9z"/>
    <path class="st10" d="M662.5,209.9c0-17.9,0-35.8,0-53.8c7.4,0.8,14.7,9.3,14.8,17.3c0,5.5,0.1,10.9-0.1,17.4
	c-0.3,4.5-0.3,8.1-0.3,13.1c-3.1-2.6-4.9-4.1-7-5.7c-2.9,1.2-5.2,3-4.7,7.2C665.4,206.7,663.5,208.4,662.5,209.9z"/>
    <path class="st1" d="M232.2,182.6c0.6,5.6,0.9,11.6,1.4,17.6c0.3,3.8,0.8,7.8,1.4,11.5c1.1,6,2,6.4,6.9,2.9c0.9-0.7,2-0.9,3.4-1.6
	c0.1,0.9,0.1,2,0.3,3c0.4,0,0.9,0,1.3,0c0-19.6,0-39.2,0-59.5c0.4,1.9,1.3,4.3,1.3,6.7c0,24.7,0,49.5-0.1,74.2c0,2.9,0,5.7,0,9.1
	c-6.4-0.8-10.1-4.9-11.6-9.6c-2.3-7.3-3.8-14.9-4.3-22.4C231.3,203.9,232,193.5,232.2,182.6z"/>
    <path class="st27" d="M325.7,389.3c-0.4,2.1-0.9,4.2-1.8,6.5c-3.4-0.8-6.6-2.8-9.4-2.7c-2,0.1-3.7,3.5-5.5,5.3c2,1,4.1,2.6,6.3,3
	c2.4,0.5,5.1,0,7.8,0c-1.3,6.2-2.6,12.2-3.8,18.2c-13.4-1.7-21.2-9.3-21.8-21.2c3.7-2.8,6.8-5.6,10.3-7.3c3.7-1.7,7.9-2.8,12-3.5
	C321.3,387.4,323.5,388.7,325.7,389.3z"/>
    <path class="st28" d="M496.3,664c1.3,0.3,2,0.8,2.9,1.2c-4.5,6.7,0.9,16.5,9.6,18.2c11.1,2.1,22,1,32.8,1.7c1.1,0.1,2.3,0.5,3.4,2
	c-8.7,0-17.2,0-26.2,0.3c-12,0.5-23.7,0.6-35.4,0.8c-5.4,0.1-5.5-2-3.8-5.8C483.1,674.9,488.6,668.9,496.3,664z"/>
    <path class="st28" d="M396.5,688.2c-6.8-0.9-13-1.7-19.2-2.4c-0.1-0.2-0.1-0.3-0.3-0.6c1.5-0.1,3.1-0.3,4.7-0.5
	c6.9-0.5,13.9-0.8,20.8-1.5c5.6-0.6,10.5-6.6,11-12.8c0.1-1.6,1.1-3.1,1.8-5.1c9.2,5,13.9,13.1,17.9,23.1
	C420.4,688.3,408.8,688.3,396.5,688.2z"/>
    <path class="st29" d="M113.3,46.8c0.5,0.7,0.6,1.4,0.6,2c-10.5-0.8-15.7,7.1-22,12.2c-17.2,14.3-33.6,29.5-50.4,44.2
	c-7.5,6.6-15.4,13-23.6,19.4c5.7-6.5,11.5-13.4,18-19.4c18.6-17.1,37.5-33.9,56.3-50.9C97.9,49.2,105,47.2,113.3,46.8z"/>
    <path class="st30" d="M220.4,397.6c3.7-1.9,6.6-2.4,9.4,1.9c1.1,1.9,5.7,1.9,8.6,2.9c1.4,0.6,2.6,1.7,3.4,2.6
	c2.2,0.5,4.9,0.5,6.8,1.6c7,4.1,14.8,4.4,22.7,3.8c4.3-0.3,8.7-1.4,13.1-2.3c0.9,1.4,1.5,3,2.4,5c-2.6,1.4-5.2,3.3-7.9,3.3
	c-17.6,0-34.3-3.3-49.8-11.1C225.9,403.4,223.3,400.4,220.4,397.6z"/>
    <path class="st31" d="M677.3,217.6c1.7,12-4,24.7-14.9,27.6c0-7.2,0-14.2,0.4-21.6c0.9-1,1.7-1.7,1.9-2.6c1.1-2.7,2-5.3,3.3-7.9
	c0.1-0.3,2.9,0.6,4.5,0.9C671.4,218.6,675,217.3,677.3,217.6z"/>
    <path class="st32" d="M689,440.7c-2.6-1-5.7-2.1-7.5-4.1c-6.9-7.3-12.6-8.1-21.2-2.6c-2.7,1.7-5.7,2.9-8.9,4.1
	c-0.3-0.7-0.1-1.2,0.1-2.3c0.1-0.8,0.1-1,0.1-1.3c4.2-8.9,12.3-14.1,20.4-12.9C681,422.8,688.1,430.6,689,440.7z"/>
    <path class="st33" d="M325.7,388.8c-2.2-0.2-4.5-1.5-6.4-1.2c-4.1,0.7-8.3,1.7-12,3.5c-3.6,1.7-6.6,4.5-10.3,7
	c1-12.8,6.3-18.7,18.6-21c2-0.3,4.2,0,6.3,0.3c2.2,0.3,4.2,1.2,7,2C328,382.4,327,385.4,325.7,388.8z"/>
    <path class="st3" d="M602.7,514.6c1.1,2,3.2,4.3,2.7,5.5c-3.8,7.7-11,12.2-19.4,15.2c-0.9,0.3-2.2-0.3-3.3-0.6
	c4.2-8.9,8.4-17.6,12.6-26.4C597.4,510,599.8,512.1,602.7,514.6z"/>
    <path class="st34" d="M432.4,567.4c-7.4,1.7-4,5.6-1.7,10c-3.7-0.9-6.3-1.6-9.8-2.6c0.1-0.1-0.9,0.7-2.2,1c-0.3,0.1-1-1.5-2.3-3.4
	c-5.6-0.7-12.8-1.5-20.7-2.3c2-1.9,3.8-3.4,5.9-5.2c8.8-0.3,17.5-0.5,26-0.3C429.5,564.6,431,566.1,432.4,567.4z"/>
    <path class="st35" d="M677.4,217.3c-2.6,0.1-6.1,1.3-5-3c-1.5-0.3-4.3-1.3-4.5-0.9c-1.4,2.6-2.3,5.2-3.3,7.9c-0.4,0.8-1,1.4-1.9,2
	c-0.4-4.2-0.5-8.2-0.4-12.9c1-2,2.9-3.6,2.8-4.9c-0.5-4.2,1.8-6,4.7-7.2c2,1.7,4,3.3,7,5.7c0-4.9,0-8.5,0.1-12.5
	C677.3,199.5,677.5,208.2,677.4,217.3 M675.9,205.8c0.1,0,0.3,0.1,0.4,0.1c-0.1-0.2-0.3-0.3-0.5-0.9c-0.1,0-0.3-0.1-0.4-0.1
	C675.4,205.1,675.6,205.3,675.9,205.8z"/>
    <path class="st16" d="M587.8,407.6c0.5,0.5,0.6,1.4,0.8,2.6c-4.1,0.2-8,0.1-12.6,0.1c-4.1-14.4-7.7-28.9-11.2-43.4
	c-0.1-0.7-0.3-1.4-0.3-2.6c2.3,4.9,5,10.2,6.6,15.7c2.2,7.8,3.1,15.8,5.5,23.6C577.8,408.1,582.2,409.9,587.8,407.6z"/>
    <path class="st31" d="M604.6,386.9c-4.2-3-6.1-6.7-5-12c7.1,1.6,14.3,3.6,21.7,5.8C616.1,383.1,610.5,385,604.6,386.9z"/>
    <path class="st36" d="M323,401.1c-2.8,0.3-5.5,0.8-7.9,0.3c-2.2-0.5-4.2-2-6.3-3c1.8-1.9,3.4-5.2,5.5-5.3c2.8-0.2,5.9,1.9,9.3,3
	C323.8,397.7,323.5,399.3,323,401.1z"/>
    <path class="st37" d="M653.9,197.7c0.4,2.9,1,5.7,1.3,8.6c0.3,2.4,0,4.8,0,7.9c6.6,2.4,2.2,5.8-0.5,9.5c-6.4-8.4-0.8-17.1-1.1-25.7
	C653.9,197.8,653.9,197.7,653.9,197.7z"/>
    <path class="st27" d="M653.9,197.8c-2.4-11.8,0.1-23.6-1.4-35.4c0.8,0,1.4,0,2.2,0c0,11.6,0,23.2-0.4,35.1
	C653.9,197.7,653.9,197.8,653.9,197.8z"/>
    <path class="st14" d="M333,518.6c5.2,2,10.5,4.3,15.7,7c0,0.3,0.1,0.3-0.4,0.3c-5.9,0.8-1,5-3.2,6.9
	C341.1,528.3,337.1,523.6,333,518.6z"/>
    <path class="st8" d="M428.1,352c0.1-0.5,0.8-1,1.5-1c19.3,0.1,38.4,0.2,58,0.6C468.2,351.9,448.4,352,428.1,352z"/>
    <path class="st38" d="M546.9,557.5c1.7,1,3.2,2,5.6,3.6c-2.7,1.4-5,2.6-7.3,3.7c-4.6-3-0.1-4.5,0.9-7
	C546.3,557.6,546.8,557.4,546.9,557.5z"/>
    <path class="st5" d="M446.1,568c0.3,7.3,0.3,14.9-0.4,22.6C445.3,583.2,445.4,575.8,446.1,568z"/>
    <path class="st24" d="M596.3,458.7c0.4,5.6,0.5,11.4,0.4,17.8C596.3,471,596.2,465,596.3,458.7z"/>
    <path class="st8" d="M345.3,533.1c2-2.1-2.8-6.3,3.1-7.1c-0.4,2.2-1.1,4.4-2,7C346.1,533.4,345.5,533.3,345.3,533.1z"/>
    <path class="st32" d="M198.9,116.7c-2-1.3-4-2.9-6-4.9C195,113,197,114.7,198.9,116.7z"/>
    <path class="st5" d="M462.5,563.8c-3.4,0.5-7.4,0.6-11.7,0.5C454.2,563.9,458.2,563.7,462.5,563.8z"/>
    <path class="st5" d="M467,620.7c-0.5-3.1-0.6-6.7-0.5-10.7C466.9,613,467.1,616.7,467,620.7z"/>
    <path class="st32" d="M192.9,111.1c-1.5-0.8-3.2-2-4.7-3.6C189.7,108.3,191.3,109.4,192.9,111.1z"/>
    <path class="st32" d="M188.1,106.6c-1.9-1.2-4-2.8-6-4.8C184.1,103.2,186,104.7,188.1,106.6z"/>
    <path class="st32" d="M206.1,124.6c-1.1-0.9-2.4-2.2-3.4-3.9C203.9,121.6,205,122.9,206.1,124.6z"/>
    <path class="st39" d="M332.1,350.3c-1.5,0-3.2-0.5-4.9-1.4C328.8,348.9,330.4,349.3,332.1,350.3z"/>
    <path class="st39" d="M258.3,285.2c-0.9-0.8-1.8-2-2.6-3.6C256.6,282.4,257.4,283.6,258.3,285.2z"/>
    <path class="st5" d="M449.7,564.1c-0.5,1.2-1.4,2.3-2.8,3.5C447.4,566.3,448.2,565.2,449.7,564.1z"/>
    <path class="st39" d="M327.2,348c-1.5-0.1-3.2-0.5-4.9-1.4C323.9,346.7,325.6,347.1,327.2,348z"/>
    <path class="st32" d="M207.6,128.2c-0.8-0.7-1.3-1.6-1.7-2.9C206.6,125.9,207.2,127,207.6,128.2z"/>
    <path class="st19" d="M325.8,462.5c0.3,0.9,0.3,2.2,0,3.7C325.4,465.1,325.6,464,325.8,462.5z"/>
    <path class="st16" d="M595.6,431.7c0.6-0.1,1.4,0,2.6,0.5C597.5,432.2,596.6,432.1,595.6,431.7z"/>
    <path class="st17" d="M157,321c-0.6,0.5-1.5,0.8-3.1,1C154.6,321.6,155.6,321.2,157,321z"/>
    <path class="st5" d="M466.8,609.1c-0.6-0.5-1.1-1.3-1.4-2.6C466,607,466.4,607.8,466.8,609.1z"/>
    <path class="st5" d="M444.8,590.8c0.4,0.9,0.3,2-0.3,3.1C444.2,592.9,444.3,592,444.8,590.8z"/>
    <path class="st24" d="M596.3,480.5c0.4,0.8,0.5,2,0.5,3.6C596.5,483.4,596.2,482.2,596.3,480.5z"/>
    <path class="st5" d="M465.9,623.4c-0.3-0.7-0.1-1.5,0.4-2.3C466.5,621.7,466.4,622.4,465.9,623.4z"/>
    <path class="st24" d="M597.6,487.9c0.6,0.2,1.1,0.8,1.4,1.7C598.4,489.4,597.9,488.8,597.6,487.9z"/>
    <path class="st31" d="M624.2,382.1c-0.8,0.2-1.5,0.1-2.6-0.5C622.5,381.4,623.3,381.6,624.2,382.1z"/>
    <path class="st16" d="M590.1,420.5c0.4-0.1,0.6,0.1,0.4,0.6C590.3,421.3,590.1,420.7,590.1,420.5z"/>
    <path class="st39" d="M175.3,233.6c0.4-0.1,0.8,0,1.1,0.6C176.2,234.3,175.7,234,175.3,233.6z"/>
    <path class="st16" d="M590.5,423.9c0.3,0,0.4,0.2,0.5,0.7C590.6,424.6,590.5,424.3,590.5,423.9z"/>
    <path class="st39" d="M333.3,351.4c-0.4,0.1-0.8,0-1.3-0.6C332.5,350.7,332.8,351,333.3,351.4z"/>
    <path class="st32" d="M171,91.4c-0.4,0.1-0.8-0.1-1.3-0.6C169.9,90.7,170.4,91,171,91.4z"/>
    <path class="st32" d="M172.2,92.6c-0.4,0.1-0.8,0-1.3-0.5C171.3,91.9,171.9,92,172.2,92.6z"/>
    <path class="st32" d="M173.4,93.6c-0.4,0.1-0.8,0-1.3-0.5C172.6,93.1,173,93.2,173.4,93.6z"/>
    <path class="st32" d="M174.7,94.8c-0.4,0.1-0.8,0-1.3-0.5C173.8,94.1,174.3,94.2,174.7,94.8z"/>
    <path class="st32" d="M175.8,95.8c-0.4,0.1-0.8,0-1.3-0.5C175,95.1,175.4,95.4,175.8,95.8z"/>
    <path class="st32" d="M177.1,97c-0.4,0.1-0.8,0-1.3-0.5C176.2,96.3,176.6,96.4,177.1,97z"/>
    <path class="st32" d="M178.2,98c-0.4,0.1-0.8,0-1.3-0.5C177.5,97.4,177.9,97.6,178.2,98z"/>
    <path class="st32" d="M179.5,99.1c-0.4,0.2-0.8,0-1.3-0.5C178.6,98.5,179,98.6,179.5,99.1z"/>
    <path class="st32" d="M180.8,100c-0.4,0.1-0.8,0-1.1-0.3C179.9,99.6,180.3,99.7,180.8,100z"/>
    <path class="st32" d="M181.9,101.2c-0.4,0.1-0.8,0-1.1-0.5C181.3,100.6,181.6,100.7,181.9,101.2z"/>
    <path class="st39" d="M270.3,305.2c-0.4,0.1-0.8,0-1.1-0.6C269.5,304.5,269.9,304.6,270.3,305.2z"/>
    <path class="st32" d="M202.6,119.9c-0.4,0.1-0.8,0-1.1-0.3C201.7,119.3,202.1,119.4,202.6,119.9z"/>
    <path class="st25" d="M651.2,434.7c0.3,0.1,0.3,0.3,0.1,0.8c-0.3,0.1-0.5-0.1-0.6-0.3C650.9,435,651,434.9,651.2,434.7z"/>
    <path class="st32" d="M200.1,117.9c-0.4,0.1-0.8,0-1.1-0.6C199.2,117.2,199.6,117.4,200.1,117.9z"/>
    <path class="st39" d="M301.8,336c-0.4,0.1-0.8,0-1.1-0.6C300.9,335.4,301.3,335.5,301.8,336z"/>
    <path class="st32" d="M201.3,118.9c-0.4,0.1-0.8,0-1.3-0.5C200.4,118.3,200.8,118.5,201.3,118.9z"/>
    <path class="st39" d="M275.1,311.8c-0.4,0.1-0.8,0-1.1-0.6C274.4,311.1,274.7,311.2,275.1,311.8z"/>
    <path class="st24" d="M596.5,485.8c0.5-0.1,0.9,0.1,1.3,0.8C597.4,486.7,596.9,486.5,596.5,485.8z"/>
    <path class="st40" d="M610.3,150.6c0,17.2-0.3,34.4,0,51.6c0.3,15.6,0.6,31-7.1,45.4c-11.1,20.2-28.1,33.8-53.2,36.8
	c-13.3,1.5-26.8,1.3-40.3,1.4c-45.2,0.1-90.4,0.3-135.5,0c-36.9-0.2-65.7-23.2-72.4-55c-0.1-22.2,0-43.4-0.4-64.8
	c-0.3-11.7,0.9-23,7.1-33.9c14.7-24.5,36-38.2,67.4-37.9c53.2,0.5,106.6,0,159.8,0.2c11,0,21.8,1.4,32,5.8
	c14.9,6.5,25.7,16.7,34.3,29.6C604.8,137.1,607.4,143.9,610.3,150.6 M355.4,126.6c3.8,3.9,7.7,7.8,11.7,12.3
	c-3.3,1.3-6.6,2.6-10.5,3.3c-3.4-3.8-6.8-7.8-10.7-12.2c-2.9-3.1-5.9-6.3-9.7-10.5c-4.5,4.2-8.7,8.1-13.5,12.4
	c-0.1,0.3-0.3,0.7-0.4,1.7c-0.1,0.5-0.1,0.8-1,1.2c-0.8,1.2-1.5,2.3-3.2,3.8c-3.6,8.2-2.7,10.8,4.7,12.9c1.4,0.3,3.2-0.1,4.5,0.5
	c3.1,1.3,7.9,2.8,8.2,4.6c0.4,2.8-2.6,5.9-4.6,10.2c-0.3,1-0.8,3.6-1.4,6.2c-0.9,3.5-2.4,7-2.4,10.5c0.1,5.7,1.1,11.4,2.2,17
	c0.3,1,2.4,1.9,3.8,2.9c0,0,0.1,0.1,0,0.9c-1.1,3.6,3.2,9.4,9.8,12.9c-0.6,0.7-1.3,1.5-0.9,1c2.3,2.9,3.8,5.2,5.7,7.3
	c1.3,1.4,3.7,3.9,4,3.7c4.5-2.8,3.4,1,3.7,2.9c-0.1,0.5-0.1,0.8-0.3,1.3c0.1,0,0.3,0,0.4,0.1c0.1-0.5,0.3-1,1.1-1.3
	c2.2,0.8,4.2,2.1,6.5,2.3c2.3,0.3,5.7-1.3,7-0.2c2.9,2.3,6,2.9,9.6,3.5c5.2,0.9,9.7,1,13.4-2.6c2.6,0.2,4.9-0.3,7.3-0.6
	c3.1-0.3,6.1-0.5,9.2-0.3c0.8,0,1.5,0.8,2.4,1.3c0.3-0.9,1-1.9,0.9-2.7c-0.6-4.9,1.4-6.5,5.7-4.5c0.5-2,1-5,1.5-5
	c5.7,0.1,4.9-4.3,6.3-7.3c0.6,0.7,1.1,1.3,0.6,0.7c1.8-1.6,3.4-3.3,5.2-4.8c2.6-2.2,5.5-4.1,4.9-8c-0.3-1.9-0.3-4.1,0.5-5.8
	c1.9-4.5,0.4-8.1-2.4-11.7c1.4-1.2,2.8-2.4,4.2-3.7c-8.4-4.6-0.1-12.1-5.2-17.3c-1-0.2-3.1-0.7-5.5-1.4c0.9-2,1.4-3.5,1.5-3.7
	c-1.8-1.9-2.9-3.1-3.6-4.4c0.3-0.2,0.5-0.5,0.9-0.7c-0.5-0.1-0.9-0.2-1.4-1c-0.6-1.2-1.1-2.2-1.4-2.6c-1.9,0.2-3.3,0.8-4.6,0.6
	c-5-0.9-7.8-5.3-11.6-7c-4.7-2-8.9-3.8-12.9-7.2c-1.5-1.3-5.1-0.5-8.4-0.7c-0.6-1.5-1.9-4.3-6.3-2.9c-3.2-5.6-6.3-11.3-10-17.5
	c-1-3.4-2-6.7-3.3-10.9c-7.9,3.3-15.1,6.2-22.9,9.3C348.9,119.4,352.1,122.7,355.4,126.6 M390.3,104.1c-3.7,0.7-7.4,1.5-11.9,2.4
	c2.4,3.9,4.2,6.7,5.4,9.9c1.5,1.9,2.9,3.6,4.7,5.7c7.8-0.9,15.7-1.9,23.6-2.7c0.3-0.7,0.5-1.4,0.8-2.2c-4-3.5-7.8-7-11.9-10.2
	c-2.8-2.2-6.1-4.1-8.9-5.8C391.9,101.6,391.6,102.8,390.3,104.1 M491.1,174.7c-0.6,0.3-1.9,0.6-2,0.9c-0.5,4.8-0.5,9.5-1.3,14.2
	c-1.4,8.9,3.8,16.3,8.7,22.8c3.4,4.6,10.3,7.4,16.1,10.3c8.4,4.2,17.5,3,26.3,0.9c7-1.7,13.4-5,18.3-10.5
	c5.1-5.7,10.1-11.7,10.5-19.2c0.3-6.4,0.5-12.8-2-19.4c-2.9-7.4-7.7-13.5-14.2-17.4c-11.2-6.7-24.1-10.3-37.8-5.5
	c-4.2,1.5-8.7,3.1-11.9,5.8c-3.7,3-6.3,7.2-8.8,11C491.8,170.2,491.8,172.2,491.1,174.7 M435.5,256.1c8,4.9,17.1,5.8,26.3,4.9
	c7.9-0.8,14.8-4.3,19.7-10.5c2.7-3.3,2.9-7-0.6-9.9c-3.3-2.7-6.3-1.6-9.3,1.2c-11.5,10.5-20.8,10.3-32.6-0.2
	c-2.9-2.7-5.7-4.3-9.2-1.4c-3.6,3-4.1,6.7-1,10.2C430.4,252.4,432.8,253.9,435.5,256.1z"/>
    <path class="st41" d="M601.8,129.5c-8.6-12.4-19.4-22.6-34.3-29.3c-10.2-4.5-21.1-5.8-32-5.8c-53.2-0.2-106.6,0.2-159.8-0.2
	c-31.4-0.2-52.6,13.4-67.5,37.6c-2.4,1.3-4.3,2.7-5.4,3.3c-1.3-0.5-2.4-0.9-3.6-1.3c1.8-9.6,7.7-17.4,14.3-24.7
	c9.6-10.5,22.5-16.5,35.7-21.9c1.7-0.7,3.8-0.6,6.5-0.5c7.3-0.2,13.7-1.2,20.2-1.2c56.4-0.1,113-0.1,169.4-0.1
	c2.3,0.1,4.7-0.2,7,0.2c24,5.8,43.7,17,55.4,38.2C605.7,126.1,603.7,127.9,601.8,129.5z"/>
    <path class="st42" d="M545.1,84.9c-56.3,0.5-112.7,0.5-169.3,0.6c-6.5,0-13,1-19.8,1.2c-0.3-0.3-0.3-0.3,0.3-0.3
	c1.4-0.3,2.4-0.6,3.3-0.9c60.4-4.5,120.9-0.5,181.3-1.7C542.3,83.6,543.6,84.2,545.1,84.9z"/>
    <path class="st43" d="M298.9,134c1.5,0.1,2.7,0.6,4,1c1-0.7,2.9-2,5-3c-5.7,10.9-6.9,22.2-6.6,33.9c0.5,21.2,0.3,42.5,0.3,64.3
	c-0.5-2.1-1.3-4.8-1.3-7.3c-0.1-24.6,0-49.2,0-74.4c-1.8,0.7-3.1,1.2-5.1,1.9C296.2,144.8,297.3,139.6,298.9,134z"/>
    <path class="st31" d="M602,130c1.8-2.1,3.7-3.8,5.9-5.8c2.7,7.7,5.2,15.4,7.7,23.3c0.1,0.6-0.6,1.4-1.3,2.4
	c-0.3,0.3-0.3,0.3-0.3,0.3c-1.1-0.1-2.2-0.1-3.6,0C607.4,143.9,604.8,137.1,602,130z"/>
    <path class="st41" d="M359.3,85.4c-0.5,0.3-1.5,0.7-2.9,0.9C356.8,86,357.9,85.7,359.3,85.4z"/>
    <path class="st31" d="M614,150.4c0.1,0.5,0.3,1,0.5,1.5c-0.1-0.3-0.4-0.6-0.5-1.2C614,150.4,614,150.4,614,150.4z"/>
    <path class="st44" d="M484.5,456.6c-2.9,2.2-6,4.4-9.6,6.3c-3.8-0.8-7-1.5-9.2-1.9c-0.3,2.3-0.5,3.8-0.6,5c1.8-0.2,3.7-0.5,5.6-0.7
	c-21.1,11.1-55-4.9-55.7-31.5c-0.3-8.2,1.5-15.9,6.1-23c2.6,4.1,4.9,2.3,7.1,0.3c9.1-7.9,18.9-13.5,32.4-12
	c8.6,0.9,22.7,9.2,24.6,16.3c1.5,5.3,7.3,10,4,16.4c-0.4,0.7,0.9,2,1.9,3.7c1.1-4.6,1.9-8.4,2.8-12.1c0.3,4.6,0.6,9.3,0.1,14.2
	c-7.3-0.5-5.7,3.8-6.1,7.3c-0.1,0.8-0.1,1.3,0,1.7c0,0,0,0-0.4,0c-2.9,2.3-5.4,4.8-8.3,7.5c2.2,0.8,3.4,1.3,5,2
	C484.4,456.4,484.5,456.6,484.5,456.6 M472.4,450c0,0,0.1,0.1,0.9,0c0.5-0.7,1.1-1.4,1.8-2.1c0,0,0,0,0.9-0.1
	c8.3-8,9.3-19.4,3.2-28.4c-6.6-9.8-20.3-16.4-32.9-11c-4,2.3-8.4,4.1-11.6,7.1c-12.1,11.1-10.2,26.8,3.8,34.8c0,0,0,0,0.3,0.7
	c2.4,1.4,4.9,2.7,8,4.2c0.5,0,1,0,2,0.8c1.1,0,2.2,0.1,4.3,0.3c2.8-0.1,5.6-0.1,9.3-0.2c2.6-1.3,5.1-2.6,8.2-4.2
	c0.3-0.1,0.4-0.1,1.3-0.2C471.9,451.2,472.3,450.7,472.4,450z"/>
    <path class="st0" d="M494.1,423.1c-0.9,4.2-1.8,7.9-2.8,12.5c-0.9-1.7-2.2-3-1.9-3.7c3.3-6.4-2.4-11-4-16.4
	c-1.9-7.1-16.1-15.3-24.6-16.3c-13.5-1.5-23.4,4.2-32.4,12c-2.3,2-4.6,3.7-6.8-0.6c12.3-18.5,41.7-22.3,59.5-8.9
	C488.2,407.2,492.3,414.4,494.1,423.1z"/>
    <path class="st45" d="M488.1,444.7c0.4-3.1-1.1-7.5,5.6-6.7c-0.8,6.9-3.7,13-8.9,18.6c-0.4,0.2-0.5-0.1-0.5-0.6
	c1.3-3.4,2.4-6.3,3.7-9.2c0,0,0,0,0.3-0.1C488.5,445.8,488.3,445.2,488.1,444.7z"/>
    <path class="st0" d="M471.1,465.1c-2.3,0.5-4.2,0.7-6,0.9c0.1-1.2,0.4-2.6,0.6-5c2.2,0.3,5.4,1,8.7,2
	C473.7,463.8,472.5,464.4,471.1,465.1z"/>
    <path class="st11" d="M297.9,299c-0.1-0.1-0.3-0.3-0.5-0.5c0.1,0,0.3,0.1,0.4,0.3C297.9,299,297.9,299,297.9,299z"/>
    <path class="st11" d="M514,331.6C514.1,331.4,514,331.6,514,331.6z"/>
    <path class="st46" d="M134.6,178.7c-5-3.1-8.6-6.9-8.6-13c0-3.8-11.4-12.3-15.4-11.5c-1.8,0.3-3.6,1.9-5,3.1
	c-4.1,3.7-9.2,6.5-9.2,13.4c0,2.7-5.4,5.3-8,8.1c-3.8,4.1-7.1,0.7-10.5-0.5c-6.6-2.6-10.2-7.1-9.7-11.8c0.6-6.4,5.6-12,12.3-13.2
	c1.8-0.3,4.2-0.5,5.7,0.3c4.6,2.3,7.4,0.5,10.5-2.3c2.2-2.1,5-3.6,7.1-5.7c1.3-1.2,2-2.9,2.7-4.5c0.4-0.9-0.1-2.2,0.1-3.3
	c3.1-11.1-4.6-17.3-13.1-22.9c-1.4-0.9-4.2-1-6-0.6c-6,1.4-12.1,0.1-15.7-4.1c-3.6-4.2-4.3-8.9-1.9-13.8c2.6-5.2,7.7-7.9,14.2-7.5
	c5.7,0.2,13,5.2,12.5,10c-0.6,5.5,3.1,7.9,6.5,10.7c8.4,6.7,8.2,6.5,16.7,0.2c3.8-2.9,6.5-5.6,7-10.6c0.9-7.1,9.4-11.5,17.4-10.2
	c6.8,1,12.3,8.5,11.2,14.9c-1.1,7.2-8.9,12.8-17.2,11c-5.5-1.2-9.6-0.3-13.7,3c-5.1,4.1-8,8.2-8.8,15.1c-1.4,11.1,6.6,15.6,13.9,21
	c1.1,0.8,3.8,0.6,5.5,0c5.9-2,10.9-0.5,14.9,3c4.3,3.7,6.6,8.2,3.3,14.5C147.7,179.1,143.6,180.6,134.6,178.7z"/>
    <path class="st47" d="M134.7,179.1c8.9,1.5,13-0.1,18.5-7.5c0.6,0.1,1.5,0.6,1.4,0.7C152.2,178.9,141.7,182.6,134.7,179.1z"/>
    <path class="st14" d="M488.1,537c0.4-0.1,0.6-0.2,1.1-0.2c0.1,0.2,0.1,0.2-0.3,0.2C488.5,537,488.2,537,488.1,537L488.1,537z"/>
    <path class="st8" d="M310.8,310.7c0.5,0.1,0.9,0.3,1.3,0.6c-0.3,0.2-0.5,0.3-0.6,0.6C311,311.5,310.8,311.2,310.8,310.7z"/>
    <path class="st8" d="M465.1,338.8c-0.4,0.2-0.9,0.6-1.3,0.8c0,0-0.3-0.2-0.3-0.3c0.4-0.1,0.6-0.2,1.3-0.5
	C465,338.8,465,338.8,465.1,338.8z"/>
    <path class="st8" d="M500.2,335.4c-0.1,0.5-0.3,0.9-0.5,1.5c0-0.3,0-0.8,0.3-1.3C500.2,335.4,500.2,335.4,500.2,335.4z"/>
    <path class="st8" d="M314.8,311.5c0.1,0.2,0.1,0.3,0,0.6C314.8,311.8,314.7,311.6,314.8,311.5z"/>
    <path class="st8" d="M615.5,436.6c-5.6-4.3-11.1-8.5-16.1-13.2c-2.2-2.1-3.2-5.2-4.7-8.4c1.1-0.3,3.1-0.6,3.2-0.1
	c4.3,8.9,13.3,13.4,22.3,18.8C618.7,434.8,617.3,435.6,615.5,436.6z"/>
    <path class="st8" d="M594.7,414.2c-0.8-0.8-1.7-2-2.4-3.6C596.1,409.8,594.8,412.1,594.7,414.2z"/>
    <path class="st24" d="M638.2,481.9c-0.5-0.1-1-0.2-1.5-0.3c0.4,0,0.9,0,1.4,0.2C638.2,481.9,638.2,481.9,638.2,481.9z"/>
    <path class="st26" d="M362.1,596.4c0.1,0.1,0.4,0.3,0.5,0.5c-0.1,0-0.3-0.1-0.4-0.3C362.1,596.5,362.1,596.5,362.1,596.4z"/>
    <path class="st8" d="M563.1,518.3c0.5-0.1,1-0.2,1.7-0.5c-0.4,0.1-0.6,0.2-1.3,0.5C563.1,518.3,563.1,518.3,563.1,518.3z"/>
    <path class="st8" d="M488.1,537.3c0.3-0.2,0.4-0.2,0.9-0.2c0,0.5-0.3,0.9-0.5,1.4C488.3,538.1,488.2,537.8,488.1,537.3z"/>
    <path class="st8" d="M560.7,520.5c-0.1,0-0.3,0.1-0.3,0C560.7,520.5,560.7,520.5,560.7,520.5z"/>
    <path class="st28" d="M190.7,370.7c9.2,3,11.4,12,18.5,17.2c0.5-0.9,0.8-1.6,1.4-2.9c2,3.8,9.8,3.7,7.3,10.6c-1.8-0.7-3.6-1.7-5.2-3
	c-0.6-0.5-1.3-2.1-1.3-2c-5,2.1-7.4-2.1-11.1-3.4C191.6,384.3,189,380.2,190.7,370.7z"/>
    <path class="st47" d="M666.6,438.3c1.9-0.6,3.4-0.9,6.1-1.5c0.3,1.7,1.4,4.6,0.8,5c-2,1.2-4.7,1.4-7.8,2.2
	C665.9,441.4,666,439.9,666.6,438.3z"/>
    <path class="st7" d="M357.2,604.2c-0.3,0.6-0.5,0.8-0.9,1c0.1-0.7,0.3-1.5,0.4-2.2C357,603.3,357.1,603.6,357.2,604.2z"/>
    <path class="st7" d="M370.5,574.5c-0.1-0.1-0.3-0.3-0.5-0.5c0.1,0,0.3,0.1,0.4,0.3C370.6,574.5,370.6,574.5,370.5,574.5z"/>
    <path class="st10" d="M675.8,205.5c-0.1-0.2-0.3-0.3-0.4-0.6c0.1,0,0.3,0.1,0.4,0.3C675.8,205.5,675.8,205.5,675.8,205.5z"/>
    <path class="st10" d="M675.8,205.5c0.1,0.1,0.3,0.3,0.4,0.6c-0.1,0-0.3-0.1-0.4-0.3C675.8,205.5,675.8,205.5,675.8,205.5z"/>
    <path class="st48" d="M332.8,203.1c-1.3-0.9-3.4-1.7-3.7-2.8c-1-5.6-2-11.3-2.2-17c0-3.5,1.7-7,2.4-10.5c0.6-2.6,1.1-5.1,1.4-6.2
	c2.2-4.3,5.1-7.4,4.6-10.2c-0.3-1.9-5.2-3.3-8.2-4.6c-1.3-0.6-3.1,0-4.5-0.5c-7.4-2-8.3-4.5-4-12.8c3.8,3.5,7,7,10.5,10.7
	c0.9-1,1.5-1.9,2.4-3c3.6,3.6,7.1,7.2,11.1,11.1c5.1-5.2,9.8-10.1,14.4-14.9c3.3-1.3,6.6-2.6,10.3-4.1c4.7-1.4,9.2-2.4,13.7-3.6
	c4.3-2.1,5.6,0.6,6.3,2.1c3.3,0.2,7-0.6,8.4,0.7c3.8,3.3,8,5.2,12.9,7.2c3.8,1.6,6.6,6,11.6,7c1.3,0.2,2.7-0.2,4.6-0.6
	c0.3,0.3,0.8,1.5,1.4,3c0,0.3,0,0.5-0.3,0.5c-0.1,0.3,0.1,0.7,0.3,0.9l0,0c1.1,1.3,2.4,2.6,4.1,4.4c-0.1,0.2-0.6,1.7-1.5,3.7
	c2.4,0.6,4.5,1,5.5,1.4c5.1,5.2-3.2,12.8,5.2,17.3c-1.5,1.3-2.9,2.6-4.2,3.7c2.8,3.5,4.3,7.2,2.4,11.7c-0.8,1.7-0.8,3.8-0.5,5.8
	c0.6,3.9-2.3,5.8-4.9,8c-1.8,1.5-3.6,3.1-5.2,4.8c0.5,0.6,0,0-0.6-0.7c-1.4,3-0.4,7.4-6.3,7.3c-0.4,0-0.9,3-1.5,5
	c-4.3-2-6.4-0.3-5.7,4.5c0.1,0.8-0.5,1.9-0.9,2.7c-0.8-0.5-1.5-1.3-2.4-1.3c-3.1,0-6.1,0.1-9.2,0.3c-2.4,0.2-4.7,0.8-7.3,0.6
	c-3.7,3.6-8.2,3.5-13.4,2.6c-3.6-0.6-6.6-1.2-9.6-3.5c-1.3-1-4.7,0.6-7,0.2c-2.3-0.3-4.3-1.5-6.9-2.4c-0.4-0.1-0.4-0.1-0.4-0.1
	c-0.8-1.6,0.1-5.5-4.3-2.7c-0.3,0.1-2.8-2.3-4-3.7c-1.8-2.1-3.4-4.4-5.7-7.3c-0.4,0.5,0.3-0.3,0.9-1c-6.6-3.5-11.1-9.3-9.6-13.4
	C333.2,203.1,333.1,203.1,332.8,203.1 M337.7,158.9c-0.1-0.1-0.3-0.1-0.4-0.2c0.1,0.1,0.4,0.3,0.6,0.8c0.1,0.1,0.3,0.1,0.4,0.2
	C338.2,159.6,338.1,159.4,337.7,158.9 M343.1,187.8c1.1,4.2,2.8,8.2,3.4,12.4c1.4,10.5,9.7,15.9,18.4,20.9c3.2,1.9,7.3,2.8,11.1,3
	c4.5,0.2,9.1-1.3,13.7-1c9.8,0.6,17.2-4.2,23.1-9.9c13.4-13.1,12.9-28.1,5-43.8c-2.9-5.9-6.8-10.5-13.5-13.4
	c-6.3-2.6-11.2-5.7-19.4-5.6c-11.2,0.1-19.9,3.1-28.7,8.2c-1.3,0.8-2.7,1.7-3.4,2.9C347.3,169.5,343.8,177.9,343.1,187.8 M336,206.2
	l0.1-0.2C336.2,205.9,335.8,205.9,336,206.2z"/>
    <path class="st49" d="M491.3,174.3c0.5-2.1,0.5-4.3,1.5-5.8c2.7-3.8,5.2-8,8.8-11c3.2-2.7,7.8-4.3,11.9-5.8
	c13.7-4.9,26.4-1.3,37.8,5.5c6.5,3.9,11.2,10,14.2,17.4c2.7,6.6,2.4,13,2,19.4c-0.4,7.4-5.4,13.5-10.5,19.2
	c-4.9,5.5-11.2,8.7-18.3,10.5c-8.7,2.2-17.9,3.4-26.3-0.9c-5.7-2.9-12.6-5.7-16.1-10.3c-4.9-6.5-10.1-13.8-8.7-22.8
	c0.8-4.6,0.8-9.4,1.3-14.2C489.2,175.3,490.5,175,491.3,174.3 M515.3,162.6c-0.6,0.7-1.1,1.4-1.8,2.1c0,0,0,0-0.9-0.1
	c-1.8-0.2-3.4-0.6-5.1-0.8c-0.8,1.3-1.8,2.3-2.3,3.6c-2.6,6.6-7.4,13.4-6.9,19.7c0.9,11.4,7.9,24.8,25.7,26.2
	c3.8,0.3,7.7,0.6,11.6,1.6c-1.1,3.6,1.3,5.2,4.3,4.3c10.5-3.1,18-9.8,22.3-19c1.3-2.7,2.4-6.5-1.9-8.5c-1.4,2.2-2.8,4.3-4.2,5.5
	c5.9-16.1-2.3-30.5-17.2-35.5c-4.6-1.5-10.3-7.8-16.2,0.1c-0.3,0-0.5-0.1-1-0.8c-1.9,0.6-3.7,1.3-5.5,1.7
	C516,162.6,516.2,162.7,515.3,162.6z"/>
    <path class="st50" d="M435.1,255.9c-2.4-2-4.7-3.5-6.5-5.5c-3.1-3.5-2.7-7.3,1-10.2c3.4-2.9,6.3-1.3,9.2,1.4
	c11.7,10.6,20.9,10.7,32.6,0.2c3.1-2.8,6-3.8,9.3-1.2c3.6,2.9,3.3,6.5,0.6,9.9c-4.9,6-11.7,9.5-19.7,10.5
	C452.6,262,443.5,261.1,435.1,255.9z"/>
    <path class="st51" d="M357,142.4c-4.3,5-9.1,9.8-14.2,15.1c-4-3.9-7.4-7.5-11.1-11.1c-0.9,1.2-1.5,1.9-2.4,3
	c-3.4-3.7-6.6-7.2-10.1-10.8c0.5-1.4,1.3-2.6,2.8-3.4c3.1,3.7,5.5,7.1,7,9.3c6.4-5.1,11.9-9.5,17.4-13.9
	C349.8,134.4,353.3,138.2,357,142.4z"/>
    <path class="st52" d="M391.1,104.1c0.4-1.2,0.9-2.3,1-2.9c2.8,1.9,6.1,3.6,8.9,5.8c4.1,3.3,7.9,6.9,11.9,10.2
	c-0.3,0.7-0.5,1.4-0.8,2.2c-7.9,0.9-15.8,1.9-23.6,2.7c-1.8-2.1-3.2-3.9-4-5.9c1.9-1.3,3.4-2.2,4.3-3.5c1.7-2.3,3.1-4.9,4.7-7.4
	C393.1,105.1,392.1,104.5,391.1,104.1z"/>
    <path class="st31" d="M346.1,130.2c-5.2,4.8-10.9,9.2-17.1,14.2c-1.5-2.2-4-5.7-6.6-9.3c-0.3-0.7-0.1-1,0.3-2
	c0.5-0.8,0.5-1.2,0.6-1.5c4.2-3.9,8.4-8,12.9-12.1C340,123.6,342.9,126.7,346.1,130.2z"/>
    <path class="st53" d="M381.1,134.6c-4.3,1.5-8.8,2.6-13.7,3.6c-4.3-3.9-8.2-7.8-11.6-12c5.5-3.1,10.7-6,16-8.9
	C374.8,123,377.9,128.6,381.1,134.6z"/>
    <path class="st54" d="M371.4,117.1c-5,3.1-10.1,6-15.8,8.8c-3.6-3.3-6.6-6.5-10.7-10.7c7.8-3.3,14.9-6.2,22.9-9.3
	C369.1,110,370.1,113.4,371.4,117.1z"/>
    <path class="st14" d="M390.7,104.1c1.4,0.5,2.4,1,2.9,1.3c-1.7,2.6-2.9,5.1-4.7,7.4c-0.9,1.3-2.4,2.3-4.1,3.4
	c-2.2-2.9-4-5.7-6.4-9.6C382.9,105.6,386.6,104.9,390.7,104.1z"/>
    <path class="st48" d="M356.1,231.9c-0.1,0.5-0.3,1-0.4,1.5c-0.1,0-0.3,0-0.4-0.1c0.1-0.5,0.1-0.8,0.5-1.4
	C355.9,231.8,356.1,231.9,356.1,231.9z"/>
    <path class="st48" d="M426.3,154.7c0.5,0.1,1,0.2,1.4,0.3c-0.3,0.2-0.5,0.5-1.1,0.7c-0.3,0-0.3,0-0.3-0.2
	C426.3,155.4,426.3,154.8,426.3,154.7C426.3,154.8,426.3,154.8,426.3,154.7z"/>
    <path class="st51" d="M323,131.7c0.3,0.2,0.1,0.6-0.3,1.2C322.5,132.7,322.6,132.2,323,131.7z"/>
    <path class="st55" d="M447.5,408.2c11.7-5.2,25.4,1.4,32,11c6.1,9.1,5.1,20.4-3.6,28.1c2.3-4.1,0.9-8-0.3-12.2
	c1.1-7-0.8-12.5-6.1-17.3c-5.6-4.9-12.4-5.8-19.7-5.7c-0.9-1.3-1.7-2.2-2.4-3.1c0,0,0,0,0-0.2C447.5,408.8,447.5,408.2,447.5,408.2z
	"/>
    <path class="st56" d="M446.5,408.2c0.5,0,0.4,0.5,0.1,0.8c-1,0.8-1.7,1.3-2.4,1.7c0.3,0.2,0.6,0.5,0.9,0.7c0.6-0.8,1.1-1.5,1.8-2.3
	c0.8,0.9,1.7,1.9,2.2,3.4c-10.9,3.8-18.8,15-11.7,28.7c0.3,3.3,0.5,6,0.9,8.8c-13.9-8.1-15.8-23.8-3.7-34.8
	C437.7,412.4,442.1,410.6,446.5,408.2z"/>
    <path class="st57" d="M438.2,450.2c-0.4-2.8-0.6-5.7-0.5-8.7c7,8.4,17.9,11.3,26.3,6.4c5.1-2.9,9.6-6.5,11.1-12.3
	c1.1,3.8,2.7,7.7-0.1,11.8c0.1,0.5,0,0.3-0.4,0.5c-1,0.7-1.5,1.4-2.2,2.1c0,0-0.1-0.1-0.4,0c-0.5,0.6-0.8,1-1.1,1.5
	c-0.3,0.1-0.4,0.1-1.3,0.3c-3.3,1.4-5.7,2.7-8.3,3.9c-2.8,0.1-5.6,0.1-9.1-0.1c-1.7-1.2-2.7-2-4-2.9c-0.1,0.8-0.1,1.5-0.3,2.2
	c-0.5,0-1,0-2-0.5C443.8,452,442.5,449,438.2,450.2C438.3,450.2,438.2,450.2,438.2,450.2z"/>
    <path class="st58" d="M487.6,446.6c-0.8,2.9-2,5.8-3.3,9.1c-1.4-0.1-2.8-0.7-5-1.5C482.2,451.4,484.8,449,487.6,446.6z"/>
    <path class="st56" d="M438.3,450.6c4.2-1.6,5.5,1.5,7.3,4.1C443.3,453.6,440.8,452.2,438.3,450.6z"/>
    <path class="st56" d="M461.8,456c2.2-1.3,4.6-2.6,7.7-3.8C467.3,453.5,464.7,454.8,461.8,456z"/>
    <path class="st56" d="M448.2,455.6c-0.1-1-0.1-1.7,0-2.6c1.3,0.9,2.3,1.7,3.4,2.8C450.7,456,449.7,455.9,448.2,455.6z"/>
    <path class="st55" d="M472.9,450.1c0.1-0.7,0.8-1.4,1.7-2.1C474.3,448.6,473.8,449.3,472.9,450.1z"/>
    <path class="st55" d="M471.4,451.7c0-0.5,0.3-0.9,0.9-1.5C472.3,450.7,471.9,451.2,471.4,451.7z"/>
    <path class="st58" d="M488.1,444.9c0.3,0.2,0.4,0.8,0.3,1.6C488,446.2,488,445.7,488.1,444.9z"/>
    <path class="st59" d="M343.1,187.5c0.6-9.6,4.1-18,9.6-25.8c0.8-1.2,2.2-2.1,3.4-2.9c8.7-5.1,17.5-8.1,28.7-8.2
	c8.2-0.1,13.1,3,19.4,5.6c6.8,2.8,10.5,7.3,13.5,13.4c7.8,15.6,8.4,30.5-5,43.8c-5.9,5.8-13.3,10.5-23.1,9.9
	c-4.5-0.2-9.1,1.3-13.7,1c-3.8-0.2-8-1.2-11.1-3c-8.6-5-16.9-10.5-18.4-20.9C345.9,196.1,344.2,192,343.1,187.5 M367.3,164.6
	c-6.5,2.3-14.3,13.7-13.7,20.9c1,12,6.3,21.7,21.6,26.7c11.4,3.7,21.4,0.9,30-7.4c8.8-8.7,11-21.7,4.1-32.3
	c-6-9.2-20.4-15.9-32.3-13.1c-3.2,0.8-5.9,3.5-8.8,5.3C368.2,164.7,368.2,164.7,367.3,164.6 M414.9,189.8c0.6,2,1.3,3.8,1.8,5.8
	c0.9-0.2,1.8-0.3,2.6-0.6c-0.8-4.8-1.4-9.5-2.2-14.3c-0.4,0.1-0.6,0.1-1,0.2C415.9,183.6,415.7,186.3,414.9,189.8z"/>
    <path class="st40" d="M335.9,206c-0.1-0.1,0.3-0.1,0.3-0.1S336,206.2,335.9,206z"/>
    <path class="st40" d="M333,203.1c0.1,0,0.4,0,0.4,0.1C333.1,203.4,333,203.2,333,203.1z"/>
    <path class="st40" d="M337.8,159.2c0.1,0.1,0.4,0.3,0.5,0.5c-0.1-0.1-0.3-0.1-0.4-0.3C337.8,159.2,337.8,159.2,337.8,159.2z"/>
    <path class="st40" d="M337.9,159.1c-0.1-0.2-0.4-0.3-0.5-0.5c0.1,0.1,0.3,0.1,0.4,0.3C337.8,159.2,337.8,159.2,337.9,159.1z"/>
    <path class="st40" d="M426,154.9c0.3-0.1,0.3,0.5,0.3,0.7C426.2,155.6,425.9,155.3,426,154.9z"/>
    <path class="st60" d="M523.3,161.6c5.1-7.8,10.9-1.5,15.4,0c14.9,5,23.2,19.4,17.2,36c0,0.3,0,0.3-0.4,0.5c-1,1.5-1.7,2.9-2.3,4.6
	c-4.1,4.6-8.2,8.8-12.3,13.1c-0.5-0.5-1-1.2-1.5-1.3c-1.3-0.2-2.7-0.1-4.1-0.2c-3.8-0.3-7.7-0.7-11.5-0.9
	c-17.7-1.4-24.8-14.9-25.7-26.2c-0.5-6.4,4.3-13.2,6.9-19.7c0.5-1.3,1.5-2.3,2.3-3.6c1.7,0.2,3.4,0.6,5.5,1.3c-5,7-4.9,11.5,0.6,15
	c5.5,3.4,11.7,2.2,15.6-2.9C532.6,172.4,530.3,166.4,523.3,161.6z"/>
    <path class="st21" d="M522.9,161.6c7.4,4.9,9.7,10.8,6.3,15.4c-3.8,5.1-10.2,6.3-15.6,2.9c-5.5-3.4-5.5-8-0.1-14.9
	c0.1-0.3,0-0.3,0.5-0.3c1-0.7,1.7-1.4,2.2-2.1c0,0-0.1-0.1,0.4,0.1c2-0.2,3.7-0.8,5.4-1.3C522,161.6,522.3,161.6,522.9,161.6z"/>
    <path class="st61" d="M535.4,214.5c1.3-0.2,2.7-0.3,4.1-0.1c0.6,0.1,1,0.8,1.5,1.3c4.1-4.3,8-8.5,12.6-13.2c1.1-2,1.8-3.3,2.3-4.6
	c0,0,0,0.1,0.1,0.1c1.4-2,2.7-4.1,4.1-6.3c4.5,2,3.2,5.8,1.9,8.5c-4.2,9.3-11.7,15.8-22.3,19C536.7,220.1,534.3,218.5,535.4,214.5z"
    />
    <path class="st60" d="M521.7,161.2c-1.5,0.8-3.2,1.4-5.2,1.6C517.8,162,519.7,161.4,521.7,161.2z"/>
    <path class="st60" d="M515.7,162.6c-0.1,0.7-0.8,1.4-1.8,2.1C514.1,164,514.6,163.3,515.7,162.6z"/>
    <path class="st62" d="M475.1,435.3c-1.7,6.2-6.1,9.8-11.2,12.7c-8.4,4.9-19.3,2-26.2-6.9c-7.4-13.6,0.5-24.6,11.4-28.1
	c7.5-0.7,14.3,0.1,19.9,5C474.3,422.7,476.2,428.3,475.1,435.3 M463.3,437.9c4-6,3.3-9.5-2.4-13.4c-3.3-2.2-10.6-1.9-13.7,1.7
	c-1.9,2.2-3.2,6.4-2.2,8.8C448.2,442.2,455.3,443.3,463.3,437.9z"/>
    <path class="st55" d="M446.8,409.2c-0.6,0.8-1.1,1.5-1.8,2.3c-0.3-0.2-0.6-0.5-0.9-0.7c0.6-0.5,1.4-0.9,2.4-1.4
	C446.8,409.2,446.8,409.2,446.8,409.2z"/>
    <path class="st63" d="M368.2,164.8c2.9-1.9,5.6-4.6,8.8-5.3c11.9-2.8,26.3,3.9,32.3,13.1c6.9,10.6,4.6,23.6-4.1,32.3
	c-8.6,8.4-18.6,11.1-30,7.4c-15.3-5-20.6-14.7-21.6-26.7c-0.6-7.2,7.1-18.6,14.2-20.3c-1.7,4.9-4.2,9.3,0,13.6
	c3.3,3.4,11,3.4,14.9,0.3c4.2-3.3,5.1-8.9,2.2-13.2c-2.9-4.3-6.5-4.9-12.8-2.2C370.9,164.1,369.5,164.4,368.2,164.8z"/>
    <path class="st61" d="M415.2,189.4c0.5-3.1,0.8-5.8,1.1-8.6c0.4-0.1,0.6-0.1,1-0.2c0.8,4.8,1.4,9.5,2.2,14.3
	c-0.9,0.2-1.8,0.3-2.6,0.6C416.2,193.6,415.6,191.8,415.2,189.4z"/>
    <path class="st49" d="M555.6,198c-0.3,1.2-0.9,2.6-1.9,4.2C554.1,200.9,554.6,199.5,555.6,198z"/>
    <path class="st64" d="M463.1,438.3c-7.8,5-14.8,3.9-18-3.3c-1-2.3,0.4-6.5,2.2-8.8c2.9-3.6,10.2-3.9,13.7-1.7
	C466.8,428.4,467.4,432,463.1,438.3 M460,434.7c0.4-1.3,0.6-2.7,1.1-4.4c-3.6,0.6-6.6,0.9-9.6,1.4c0.4,1.4,0.6,2.6,1,3.7
	c0.3,1,0.6,2.1,1,3.1c1-0.3,2-0.7,3.1-1.3C457.6,436.8,458.5,435.9,460,434.7z"/>
    <path class="st12" d="M368.2,164.7c1.3-0.3,2.7-0.6,4-1.2c6.3-2.7,9.8-2.1,12.8,2.2c2.9,4.3,2,10-2.2,13.2c-4,3-11.6,3-14.9-0.3
	c-4.2-4.3-1.7-8.8,0.5-13.6C368.2,164.7,368.2,164.7,368.2,164.7z"/>
    <path class="st47" d="M459.6,435c-1.1,0.9-2,1.7-3.1,2.3c-0.9,0.5-2,0.8-3.1,1.3c-0.4-1-0.8-2.1-1-3.1c-0.4-1.2-0.6-2.3-1-3.7
	c3.1-0.5,6-0.9,9.6-1.4C460.6,432.1,460.2,433.4,459.6,435z"/>
</svg>
